<svg xmlns="http://www.w3.org/2000/svg" xmlns:xlink="http://www.w3.org/1999/xlink" width="1080" zoomAndPan="magnify" viewBox="0 0 810 809.999993" height="1080" preserveAspectRatio="xMidYMid meet" version="1.0"><defs><g/><clipPath id="c0fa6a1e00"><path d="M 42 291 L 768.738281 291 L 768.738281 809 L 42 809 Z M 42 291 " clip-rule="nonzero"/></clipPath><clipPath id="cb9465a972"><path d="M 522.734375 494.042969 L 571.484375 494.042969 L 571.484375 549.542969 L 522.734375 549.542969 Z M 522.734375 494.042969 " clip-rule="nonzero"/></clipPath><clipPath id="690167a19b"><path d="M 690 503 L 715 503 L 715 523.101562 L 690 523.101562 Z M 690 503 " clip-rule="nonzero"/></clipPath><clipPath id="60ec0dd6b1"><path d="M 711 485 L 726.449219 485 L 726.449219 511 L 711 511 Z M 711 485 " clip-rule="nonzero"/></clipPath><clipPath id="838c810740"><path d="M 689 474.351562 L 714 474.351562 L 714 495 L 689 495 Z M 689 474.351562 " clip-rule="nonzero"/></clipPath><clipPath id="2f1c553e6e"><path d="M 677.699219 487 L 693 487 L 693 513 L 677.699219 513 Z M 677.699219 487 " clip-rule="nonzero"/></clipPath><clipPath id="77ae3e99fb"><path d="M 513 602.769531 L 561.582031 602.769531 L 561.582031 647.019531 L 513 647.019531 Z M 513 602.769531 " clip-rule="nonzero"/></clipPath><clipPath id="5abfc9ab00"><path d="M 482.054688 533 L 686.988281 533 L 686.988281 611.144531 L 482.054688 611.144531 Z M 482.054688 533 " clip-rule="nonzero"/></clipPath><clipPath id="1ea41f1a0f"><path d="M 482.101562 589.574219 C 482.101562 589.574219 482.175781 589.199219 482.25 588.976562 C 482.25 588.75 482.324219 588.375 482.324219 588.375 C 482.324219 588.375 482.550781 588 482.625 587.773438 C 482.699219 587.625 482.851562 587.25 482.851562 587.25 C 482.851562 587.25 483.148438 586.949219 483.226562 586.800781 C 483.375 586.648438 483.601562 586.273438 483.675781 586.273438 C 483.675781 586.273438 483.976562 586.050781 484.125 585.898438 C 484.273438 585.824219 484.574219 585.601562 484.648438 585.523438 C 484.648438 585.523438 485.023438 585.375 485.175781 585.300781 C 485.324219 585.226562 485.699219 585.074219 485.699219 585.074219 C 485.773438 585.074219 489.375 583.726562 491.101562 583.050781 C 492.75 582.375 494.175781 581.773438 495.75 581.023438 C 497.398438 580.273438 499.351562 579.300781 500.773438 578.625 C 501.898438 578.023438 503.550781 577.199219 503.851562 577.050781 C 503.851562 576.976562 503.851562 576.976562 503.925781 576.976562 C 503.925781 576.976562 504 576.976562 504 576.898438 C 504.148438 576.898438 504.300781 576.75 504.449219 576.75 C 504.601562 576.675781 504.75 576.675781 504.976562 576.601562 C 505.125 576.523438 505.351562 576.449219 505.5 576.375 C 505.574219 576.375 505.648438 576.449219 505.800781 576.375 C 505.875 576.375 505.949219 576.375 506.023438 576.375 C 506.175781 576.300781 506.398438 576.375 506.625 576.375 C 506.773438 576.375 507 576.375 507.148438 576.375 C 507.300781 576.375 507.375 576.449219 507.449219 576.449219 C 507.523438 576.523438 507.675781 576.449219 507.75 576.523438 C 507.824219 576.523438 507.824219 576.675781 507.976562 576.601562 C 508.574219 576.601562 510.375 575.023438 511.875 574.574219 C 513.75 573.898438 516.523438 573.824219 518.625 573.675781 C 520.5 573.523438 522.074219 573.675781 523.800781 573.675781 C 525.601562 573.675781 527.398438 573.824219 529.125 573.675781 C 530.851562 573.523438 532.648438 573.300781 534.300781 572.851562 C 535.949219 572.476562 537.449219 571.800781 539.023438 571.273438 C 540.675781 570.75 542.476562 570.300781 544.125 569.699219 C 545.699219 569.023438 547.726562 568.574219 548.851562 567.449219 C 549.898438 566.476562 549.898438 564.675781 550.875 563.699219 C 552 562.574219 553.800781 562.125 555.300781 561.226562 C 556.875 560.175781 558.523438 558.75 560.101562 557.773438 C 561.601562 556.949219 563.023438 556.351562 564.523438 555.601562 C 566.175781 554.773438 567.824219 553.875 569.476562 553.199219 C 570.898438 552.601562 572.101562 551.550781 573.75 551.625 C 576.148438 551.851562 581.550781 554.023438 582.148438 555.976562 C 582.675781 557.625 579.226562 560.175781 579.226562 561.898438 C 579.226562 563.101562 580.425781 565.125 580.800781 565.125 C 581.101562 565.125 581.101562 564.226562 581.476562 563.550781 C 581.925781 562.5 583.726562 559.5 583.726562 559.5 C 583.726562 559.5 583.800781 559.125 583.875 558.898438 C 583.875 558.75 583.949219 558.375 583.949219 558.375 C 583.949219 558.375 584.101562 558 584.175781 557.773438 C 584.25 557.625 584.398438 557.25 584.398438 557.25 C 584.398438 557.25 584.625 556.949219 584.699219 556.800781 C 584.851562 556.648438 585.074219 556.351562 585.074219 556.351562 C 585.074219 556.351562 585.375 556.050781 585.523438 555.976562 C 585.675781 555.824219 585.976562 555.601562 585.976562 555.601562 C 585.976562 555.601562 586.273438 555.375 586.5 555.300781 C 586.648438 555.226562 587.023438 555.074219 587.023438 555.074219 C 587.023438 555.074219 587.398438 555 587.550781 554.925781 C 587.773438 554.851562 588.148438 554.773438 588.148438 554.773438 C 588.148438 554.773438 588.523438 554.773438 588.75 554.851562 C 588.898438 554.851562 589.273438 554.851562 589.351562 554.851562 C 589.351562 554.851562 589.726562 554.925781 589.875 555 C 590.101562 555.074219 590.476562 555.148438 590.476562 555.148438 C 590.476562 555.148438 590.773438 555.300781 590.925781 555.449219 C 591.148438 555.523438 591.449219 555.675781 591.449219 555.675781 C 591.449219 555.75 591.75 555.976562 591.898438 556.125 C 592.050781 556.273438 592.351562 556.5 592.351562 556.5 C 592.351562 556.5 592.574219 556.800781 592.648438 557.023438 C 592.726562 557.175781 592.949219 557.476562 592.949219 557.476562 C 592.949219 557.476562 593.101562 557.851562 593.175781 558.074219 C 593.25 558.226562 593.324219 558.601562 593.324219 558.601562 C 593.324219 558.601562 593.398438 558.976562 593.398438 559.199219 C 593.398438 559.351562 593.476562 559.726562 593.476562 559.726562 C 593.476562 559.726562 593.398438 561.300781 593.398438 562.425781 C 593.25 564.148438 593.175781 567.226562 592.949219 569.023438 C 592.875 570.375 592.199219 572.25 592.574219 572.550781 C 592.875 572.773438 593.773438 572.101562 594.226562 571.875 C 594.523438 571.726562 594.75 571.648438 594.898438 571.425781 C 595.050781 571.273438 595.125 571.199219 595.273438 570.976562 C 595.800781 570.148438 597.074219 567.375 598.125 565.574219 C 599.023438 563.851562 599.550781 561.75 601.125 560.476562 C 602.851562 559.050781 607.050781 557.398438 608.25 557.699219 C 608.851562 557.925781 608.925781 559.050781 609.226562 559.050781 C 609.675781 558.976562 610.199219 557.398438 610.5 556.5 C 610.726562 555.523438 610.875 553.425781 610.875 553.425781 C 610.875 553.425781 610.949219 553.050781 611.023438 552.898438 C 611.023438 552.675781 611.101562 552.375 611.101562 552.375 C 611.101562 552.300781 611.324219 552 611.398438 551.851562 C 611.476562 551.699219 611.625 551.324219 611.625 551.324219 C 611.625 551.324219 611.851562 551.023438 612 550.875 C 612.148438 550.800781 612.375 550.5 612.375 550.5 C 612.375 550.5 612.675781 550.273438 612.824219 550.125 C 612.976562 550.050781 613.273438 549.824219 613.273438 549.824219 C 613.273438 549.824219 613.648438 549.675781 613.800781 549.601562 C 613.949219 549.523438 614.324219 549.375 614.324219 549.375 C 614.324219 549.375 614.699219 549.375 614.851562 549.300781 C 615.074219 549.300781 615.449219 549.226562 615.449219 549.226562 C 615.449219 549.226562 615.824219 549.300781 615.976562 549.300781 C 616.199219 549.300781 616.574219 549.375 616.574219 549.375 C 616.574219 549.375 616.875 549.449219 617.101562 549.523438 C 617.25 549.601562 617.625 549.75 617.625 549.75 C 617.625 549.75 617.925781 549.976562 618.074219 550.050781 C 618.226562 550.125 618.523438 550.351562 618.523438 550.351562 C 618.523438 550.351562 618.824219 550.648438 618.898438 550.800781 C 619.050781 550.875 619.273438 551.175781 619.273438 551.175781 C 619.273438 551.175781 619.351562 551.25 619.351562 551.25 C 619.5 551.25 619.726562 547.273438 620.476562 545.324219 C 621.226562 543.300781 622.800781 540.074219 624.226562 539.550781 C 625.125 539.25 626.773438 540.601562 627.226562 540.449219 C 627.375 540.449219 627.449219 540.226562 627.523438 540.148438 C 627.523438 540.074219 627.523438 540 627.601562 539.925781 C 627.75 539.550781 628.949219 537.449219 629.101562 537 C 629.175781 536.851562 629.175781 536.699219 629.175781 536.699219 C 629.175781 536.699219 629.324219 536.324219 629.398438 536.101562 C 629.476562 535.949219 629.699219 535.574219 629.699219 535.5 C 629.699219 535.5 629.925781 535.199219 630.074219 535.050781 C 630.148438 534.898438 630.300781 534.75 630.300781 534.675781 C 630.300781 534.675781 630.300781 534.675781 630.375 534.675781 C 630.375 534.675781 630.300781 534.675781 630.300781 534.675781 C 630.375 534.675781 630.449219 534.523438 630.449219 534.523438 C 630.449219 534.523438 630.75 534.300781 630.898438 534.148438 C 631.050781 534 631.425781 533.773438 631.425781 533.773438 C 631.425781 533.773438 631.800781 533.625 631.949219 533.476562 C 632.175781 533.398438 632.550781 533.25 632.550781 533.25 C 632.550781 533.25 632.925781 533.175781 633.148438 533.101562 C 633.375 533.101562 633.75 533.023438 633.75 533.023438 C 633.75 533.023438 634.199219 533.023438 634.351562 533.023438 C 634.574219 533.023438 634.949219 533.023438 635.023438 533.023438 C 635.023438 533.101562 635.398438 533.175781 635.625 533.25 C 635.773438 533.324219 636.148438 533.398438 636.226562 533.398438 C 636.226562 533.398438 636.523438 533.625 636.75 533.699219 C 636.898438 533.851562 637.273438 534.074219 637.273438 534.074219 C 637.273438 534.074219 637.574219 534.375 637.726562 534.449219 C 637.875 534.601562 638.175781 534.898438 638.175781 534.898438 C 638.175781 534.898438 638.398438 535.273438 638.476562 535.425781 C 638.625 535.648438 638.773438 535.949219 638.773438 535.949219 C 638.773438 535.949219 638.773438 536.175781 638.851562 536.25 C 639 536.398438 639.898438 536.25 640.273438 536.625 C 640.875 537.148438 641.175781 539.476562 641.476562 540.074219 C 641.625 540.375 641.773438 540.601562 641.773438 540.601562 C 641.773438 540.601562 641.925781 540.976562 642 541.199219 C 642.074219 541.351562 642.074219 541.574219 642.226562 541.726562 C 642.300781 541.949219 642.523438 541.949219 642.601562 542.175781 C 642.75 542.476562 642.675781 543.523438 642.824219 543.523438 C 642.898438 543.601562 643.050781 543.226562 643.199219 542.851562 C 643.726562 542.023438 644.699219 539.175781 646.199219 538.273438 C 647.851562 537.300781 651.824219 536.773438 653.25 537.824219 C 654.824219 538.949219 655.125 542.925781 655.050781 545.023438 C 655.050781 546.675781 654.449219 547.949219 653.699219 549.375 C 652.800781 551.101562 650.101562 553.726562 649.800781 554.476562 C 649.726562 554.699219 649.726562 554.851562 649.726562 554.851562 C 649.726562 554.925781 649.726562 554.851562 649.726562 554.925781 C 649.726562 554.925781 649.5 555.976562 649.648438 556.199219 C 649.800781 556.273438 650.25 556.199219 650.25 556.199219 C 650.25 556.199219 650.625 556.273438 650.851562 556.351562 C 651 556.425781 651.375 556.5 651.375 556.5 C 651.375 556.5 651.75 556.726562 651.898438 556.800781 C 652.050781 556.875 652.425781 557.101562 652.425781 557.101562 C 652.425781 557.101562 652.800781 557.398438 652.875 557.476562 C 652.875 557.550781 652.949219 557.625 652.949219 557.625 C 653.023438 557.625 653.023438 557.550781 653.101562 557.625 C 653.398438 557.699219 655.351562 560.550781 656.398438 560.925781 C 657.148438 561.148438 657.75 560.476562 658.5 560.476562 C 659.324219 560.476562 660.601562 561.226562 661.199219 561 C 661.574219 560.925781 661.5 560.476562 661.949219 560.175781 C 663.074219 559.574219 666.824219 558.449219 668.851562 558.898438 C 670.648438 559.273438 672.824219 561.148438 673.574219 562.351562 C 674.023438 563.101562 673.425781 564.226562 673.949219 564.75 C 674.625 565.351562 676.648438 564.675781 678.074219 565.050781 C 679.800781 565.425781 681.898438 565.875 683.25 567.148438 C 684.898438 568.648438 686.476562 571.800781 686.773438 573.898438 C 687 575.550781 686.398438 577.050781 685.800781 578.625 C 685.125 580.5 684.226562 582.449219 682.800781 584.25 C 681.226562 586.351562 678.449219 588.675781 676.425781 590.25 C 674.773438 591.449219 673.199219 592.273438 671.773438 593.023438 C 670.648438 593.625 669.824219 593.925781 668.699219 594.601562 C 667.351562 595.425781 665.476562 597.375 664.199219 597.675781 C 663.523438 597.898438 662.851562 597.300781 662.398438 597.449219 C 661.949219 597.675781 661.800781 598.273438 661.351562 598.574219 C 660.824219 598.949219 659.699219 599.324219 659.550781 599.398438 C 659.550781 599.398438 659.550781 599.398438 659.550781 599.476562 C 659.476562 599.476562 659.101562 599.851562 659.101562 599.851562 C 659.023438 599.851562 658.726562 600 658.5 600.148438 C 658.351562 600.226562 657.976562 600.375 657.976562 600.375 C 657.976562 600.375 657.523438 600.449219 657.375 600.523438 C 657.226562 600.523438 657.226562 600.523438 657.074219 600.601562 C 656.925781 600.675781 656.851562 600.75 656.550781 600.824219 C 655.949219 600.976562 653.851562 600.75 653.476562 601.050781 C 653.324219 601.199219 653.398438 601.351562 653.324219 601.574219 C 653.324219 601.726562 653.175781 602.101562 653.175781 602.101562 C 653.175781 602.101562 653.023438 602.476562 652.949219 602.625 C 652.875 602.773438 652.648438 603.148438 652.648438 603.148438 C 652.648438 603.148438 652.425781 603.449219 652.273438 603.601562 C 652.125 603.75 651.898438 604.050781 651.898438 604.050781 C 651.824219 604.050781 651.523438 604.273438 651.375 604.351562 C 651.226562 604.5 650.925781 604.726562 650.851562 604.726562 C 650.851562 604.726562 650.550781 604.875 650.324219 604.949219 C 650.175781 604.949219 649.800781 605.101562 649.800781 605.101562 C 649.800781 605.101562 649.351562 605.175781 649.199219 605.175781 C 648.976562 605.25 648.601562 605.25 648.601562 605.25 C 648.601562 605.25 648.226562 605.175781 648 605.175781 C 647.851562 605.175781 647.398438 605.101562 647.398438 605.101562 C 647.398438 605.101562 647.023438 604.949219 646.875 604.875 C 646.726562 604.800781 646.351562 604.726562 646.351562 604.648438 C 646.351562 604.648438 646.199219 604.5 646.050781 604.5 C 645.601562 604.425781 644.550781 605.101562 643.648438 605.324219 C 642.375 605.625 640.351562 606.148438 639.074219 605.699219 C 637.800781 605.324219 636.824219 603.074219 635.851562 603.074219 C 635.175781 603 634.351562 604.050781 633.976562 604.351562 C 633.75 604.5 633.675781 604.648438 633.523438 604.726562 C 633.375 604.875 633.074219 605.101562 633.074219 605.101562 C 633.074219 605.175781 632.699219 605.324219 632.550781 605.398438 C 632.324219 605.476562 632.023438 605.699219 632.023438 605.699219 C 632.023438 605.699219 631.648438 605.773438 631.425781 605.851562 C 631.273438 605.851562 630.898438 605.925781 630.898438 605.925781 C 630.824219 605.925781 630.449219 605.925781 630.300781 605.925781 C 630.074219 605.925781 629.699219 605.925781 629.699219 605.925781 C 629.699219 605.925781 629.324219 605.851562 629.101562 605.773438 C 628.949219 605.773438 628.574219 605.699219 628.574219 605.625 C 628.574219 605.625 628.199219 605.476562 628.050781 605.398438 C 627.824219 605.324219 627.523438 605.101562 627.523438 605.101562 C 627.523438 605.101562 627.226562 604.875 627.074219 604.726562 C 626.925781 604.574219 626.625 604.351562 626.625 604.351562 C 626.625 604.351562 626.398438 603.976562 626.324219 603.824219 C 626.25 603.75 626.25 603.675781 626.175781 603.675781 C 626.101562 603.601562 625.949219 603.675781 625.875 603.75 C 625.726562 603.75 625.351562 603.898438 625.351562 603.898438 C 625.351562 603.898438 624.976562 603.898438 624.75 603.898438 C 624.601562 603.824219 624.226562 603.824219 624.226562 603.824219 C 624.226562 603.824219 623.851562 603.75 623.699219 603.75 C 623.476562 603.675781 623.175781 603.601562 623.175781 603.601562 C 623.101562 603.601562 622.800781 603.449219 622.648438 603.300781 C 622.5 603.226562 622.199219 603.074219 622.199219 603.074219 C 622.125 603.074219 621.898438 602.851562 621.75 602.699219 C 621.601562 602.550781 621.375 602.324219 621.375 602.324219 C 621.300781 602.324219 621.074219 601.949219 621 601.875 C 621 601.875 621 601.800781 621 601.800781 C 620.925781 601.726562 620.773438 601.574219 620.625 601.5 C 620.476562 601.351562 620.175781 601.125 620.175781 601.125 C 620.175781 601.125 619.949219 600.75 619.875 600.675781 C 619.800781 600.601562 619.800781 600.523438 619.726562 600.523438 C 619.574219 600.523438 619.050781 602.25 618.675781 602.851562 C 618.300781 603.449219 617.773438 603.75 617.476562 604.273438 C 617.101562 605.023438 617.324219 606 616.726562 606.824219 C 615.824219 608.175781 612.675781 611.398438 611.101562 611.101562 C 609.375 610.726562 607.199219 605.625 607.050781 603.675781 C 606.976562 602.550781 608.175781 601.273438 608.175781 600.824219 C 608.175781 600.675781 608.101562 600.523438 608.101562 600.523438 C 608.023438 600.523438 608.023438 600.601562 607.949219 600.601562 C 607.5 600.449219 603.449219 595.949219 602.925781 593.476562 C 602.398438 591.300781 604.800781 587.550781 604.199219 586.726562 C 603.898438 586.273438 603.226562 586.425781 602.476562 586.425781 C 601.125 586.273438 597.601562 586.425781 596.625 586.425781 C 596.324219 586.425781 596.25 586.273438 596.023438 586.425781 C 595.425781 586.648438 594.675781 588.226562 594 589.199219 C 593.101562 590.476562 592.5 592.574219 591.074219 593.324219 C 589.125 594.375 584.398438 594.523438 582.75 593.324219 C 581.398438 592.351562 581.101562 589.125 581.023438 588 C 580.949219 587.476562 581.324219 586.949219 581.101562 586.800781 C 580.949219 586.648438 580.425781 587.023438 579.824219 587.25 C 578.25 587.699219 574.351562 589.125 571.800781 589.648438 C 569.699219 590.175781 567.601562 590.925781 565.800781 590.476562 C 564.074219 590.023438 562.125 588.601562 561.226562 587.101562 C 560.324219 585.824219 560.398438 584.023438 560.25 582.375 C 560.175781 580.574219 561.226562 577.949219 560.476562 576.824219 C 560.023438 576 558.523438 575.773438 557.625 575.476562 C 556.949219 575.25 556.199219 575.101562 555.601562 575.175781 C 555.074219 575.25 554.925781 575.476562 554.324219 575.699219 C 553.125 576.300781 550.351562 577.726562 548.324219 578.476562 C 546.226562 579.300781 543.976562 579.976562 541.800781 580.648438 C 539.625 581.324219 537.601562 582.074219 535.425781 582.601562 C 533.324219 583.050781 531 583.351562 528.976562 583.5 C 527.175781 583.648438 525.601562 583.648438 523.875 583.726562 C 522.148438 583.726562 520.425781 583.5 518.699219 583.726562 C 516.75 584.023438 514.726562 584.699219 512.925781 585.449219 C 511.199219 586.125 509.773438 587.175781 508.125 587.925781 C 506.476562 588.675781 504.75 589.425781 502.875 590.023438 C 501 590.625 498.898438 590.925781 497.023438 591.523438 C 495.074219 592.199219 492.898438 593.476562 491.324219 594.074219 C 490.273438 594.449219 489.226562 594.675781 488.625 594.824219 C 488.398438 594.824219 488.25 594.898438 488.023438 594.898438 C 487.800781 594.898438 487.425781 594.976562 487.425781 594.976562 C 487.425781 594.976562 487.050781 594.976562 486.824219 594.976562 C 486.601562 594.976562 486.226562 594.898438 486.226562 594.898438 C 486.226562 594.898438 485.851562 594.824219 485.625 594.75 C 485.398438 594.675781 485.023438 594.523438 485.023438 594.523438 C 485.023438 594.523438 484.726562 594.300781 484.5 594.226562 C 484.351562 594.074219 483.976562 593.925781 483.976562 593.925781 C 483.976562 593.851562 483.75 593.625 483.601562 593.476562 C 483.449219 593.324219 483.148438 593.023438 483.148438 593.023438 C 483.148438 593.023438 482.925781 592.648438 482.851562 592.5 C 482.773438 592.351562 482.550781 591.976562 482.550781 591.976562 C 482.550781 591.976562 482.398438 591.601562 482.324219 591.375 C 482.324219 591.148438 482.175781 590.773438 482.175781 590.773438 C 482.175781 590.773438 482.175781 590.398438 482.175781 590.175781 C 482.175781 589.949219 482.101562 589.574219 482.101562 589.574219 M 603.375 576.75 C 606.449219 576.449219 606.601562 574.949219 606.300781 574.800781 C 605.925781 574.574219 603.375 576.75 603.375 576.75 " clip-rule="nonzero"/></clipPath><clipPath id="21ce9cf883"><path d="M 665.503906 592 L 711 592 L 711 637 L 665.503906 637 Z M 665.503906 592 " clip-rule="nonzero"/></clipPath></defs><path fill="#ffffff" d="M 750.429688 447.371094 C 740.140625 448.402344 729.847656 449.429688 719.214844 450.460938 C 669.820312 454.230469 620.085938 462.121094 571.035156 466.921875 C 569.664062 464.867188 567.261719 465.207031 565.890625 466.582031 C 561.089844 466.238281 555.601562 462.464844 551.140625 466.238281 C 551.140625 466.238281 550.796875 466.238281 550.796875 466.238281 C 542.910156 451.144531 537.421875 434.679688 531.933594 418.558594 C 528.503906 408.613281 524.042969 399.007812 515.46875 392.148438 C 501.0625 382.199219 468.132812 361.960938 451.324219 362.648438 C 450.980469 359.5625 449.609375 356.472656 447.207031 354.417969 C 452.355469 345.839844 431.773438 340.011719 430.402344 341.039062 C 431.429688 311.882812 417.710938 286.84375 387.523438 281.011719 C 360.425781 275.523438 322.011719 274.496094 307.605469 302.621094 C 305.890625 302.277344 289.765625 302.277344 288.050781 302.621094 C 285.652344 299.535156 258.554688 329.035156 269.53125 339.324219 C 171.085938 383.230469 115.175781 378.085938 87.734375 500.882812 C 83.960938 512.542969 83.617188 524.890625 79.84375 536.210938 C 66.125 568.796875 54.804688 603.097656 52.0625 638.429688 C 45.203125 640.144531 44.515625 652.148438 52.40625 653.863281 C 55.492188 654.550781 57.894531 655.578125 59.949219 657.292969 C 58.234375 686.105469 65.097656 752.308594 69.554688 751.964844 C 78.472656 780.433594 118.605469 788.667969 147.074219 778.71875 C 142.273438 787.980469 147.074219 793.8125 147.074219 798.613281 C 249.292969 802.386719 360.769531 800.328125 462.644531 805.472656 C 475.679688 805.132812 489.398438 808.5625 502.433594 806.847656 C 510.324219 805.132812 510.324219 792.78125 502.433594 791.066406 L 537.078125 783.519531 C 536.390625 783.179688 551.484375 773.230469 562.804688 754.367188 C 573.4375 733.441406 566.234375 708.058594 571.035156 685.078125 C 608.765625 681.992188 646.839844 680.617188 684.226562 674.445312 C 689.375 689.535156 711.328125 671.355469 718.1875 664.152344 C 721.617188 663.125 724.359375 660.039062 724.359375 656.265625 C 726.761719 652.835938 727.105469 648.03125 725.046875 644.945312 C 735.335938 584.917969 751.457031 523.519531 756.945312 462.808594 C 759.003906 462.464844 760.71875 461.433594 762.433594 460.0625 C 765.179688 456.976562 765.863281 451.832031 761.0625 449.085938 C 757.289062 446.34375 754.203125 447.027344 750.429688 447.371094 Z M 750.429688 447.371094 " fill-opacity="1" fill-rule="evenodd"/><g clip-path="url(#c0fa6a1e00)"><path fill="#007d53" d="M 309.660156 296.449219 C 312.75 288.558594 323.039062 291.644531 322.011719 299.878906 C 321.324219 304.679688 318.582031 309.824219 316.179688 314.285156 C 314.121094 317.714844 312.0625 321.144531 308.976562 323.886719 C 314.464844 329.035156 319.953125 333.835938 325.785156 338.292969 C 331.957031 343.441406 338.476562 347.898438 345.335938 352.015625 C 351.167969 355.789062 357.339844 358.875 363.171875 363.335938 C 368.316406 367.109375 373.117188 371.910156 375.519531 378.085938 C 377.921875 384.601562 376.890625 391.460938 375.175781 397.980469 L 374.832031 398.664062 C 372.777344 405.183594 369.6875 413.070312 374.148438 419.246094 C 376.550781 422.332031 379.980469 424.734375 383.066406 427.132812 C 385.808594 429.191406 388.210938 431.9375 390.613281 434.335938 C 395.414062 439.824219 399.53125 446.34375 402.273438 453.546875 L 402.617188 454.230469 C 404.675781 460.40625 406.390625 468.296875 403.304688 474.46875 C 402.617188 476.183594 399.875 475.5 399.1875 473.785156 C 398.160156 470.011719 398.160156 465.894531 397.128906 461.777344 C 395.757812 457.320312 394.386719 453.546875 392.328125 449.773438 C 388.554688 442.570312 383.066406 436.394531 376.890625 431.25 L 375.175781 429.878906 C 370.375 425.761719 365.914062 421.644531 364.886719 414.785156 C 363.859375 407.582031 366.601562 401.066406 368.660156 394.207031 C 370.03125 389.402344 370.375 384.945312 369.003906 380.828125 C 367.289062 383.570312 364.886719 386.316406 363.171875 388.375 C 359.398438 393.175781 355.96875 397.636719 352.195312 402.09375 C 348.421875 406.898438 344.648438 411.699219 341.21875 416.5 C 339.503906 418.558594 338.132812 420.960938 336.757812 423.019531 C 335.730469 424.734375 334.015625 426.449219 332.644531 428.164062 C 332.988281 429.191406 332.988281 430.222656 332.300781 430.90625 C 325.785156 439.824219 316.179688 421.304688 313.777344 416.5 C 308.632812 406.898438 304.859375 396.605469 300.058594 387.003906 C 294.914062 377.054688 288.738281 367.109375 282.222656 358.1875 C 278.105469 352.703125 273.644531 347.554688 269.871094 341.726562 C 261.296875 349.613281 249.976562 354.757812 239.34375 359.5625 C 228.027344 364.707031 216.019531 369.164062 204.015625 373.625 L 200.585938 374.996094 C 180.347656 382.886719 159.421875 391.460938 142.617188 405.867188 C 122.722656 422.675781 111.058594 445.65625 102.140625 469.324219 C 92.195312 496.765625 83.617188 524.890625 76.074219 553.363281 C 71.957031 567.769531 68.183594 582.175781 64.753906 596.925781 C 61.667969 609.617188 58.921875 622.648438 55.492188 635.339844 C 62.695312 635 71.269531 638.085938 77.445312 638.769531 C 105.914062 642.542969 134.042969 648.375 160.796875 658.664062 C 164.226562 660.039062 164.910156 663.125 164.226562 665.867188 C 166.285156 665.183594 168 664.839844 170.058594 664.152344 C 168 661.066406 169.027344 655.234375 169.027344 651.460938 L 169.027344 651.121094 C 169.027344 646.316406 169.714844 641.515625 170.058594 636.714844 C 170.742188 627.796875 171.429688 618.535156 172.457031 609.617188 L 172.800781 607.214844 C 174.171875 597.265625 174.859375 587.664062 176.230469 577.714844 L 176.230469 576.6875 C 175.546875 574.285156 174.859375 571.882812 174.171875 569.140625 C 172.113281 562.625 169.027344 556.449219 166.285156 549.933594 C 165.941406 549.246094 166.96875 548.902344 167.65625 549.246094 C 172.113281 553.363281 175.546875 558.507812 178.632812 563.652344 C 178.632812 563.308594 178.632812 563.308594 178.632812 562.964844 L 178.976562 561.25 C 179.660156 557.476562 180.691406 553.363281 183.089844 549.933594 C 183.433594 549.589844 183.777344 549.589844 184.121094 549.933594 C 186.523438 553.703125 186.523438 558.851562 186.863281 562.964844 C 187.207031 568.109375 187.207031 572.914062 187.207031 578.058594 C 187.207031 587.664062 186.523438 597.609375 185.835938 607.214844 C 185.148438 616.820312 184.121094 626.078125 182.75 635.683594 L 183.089844 639.113281 C 182.40625 643.574219 181.71875 648.03125 181.035156 652.835938 L 180.691406 654.207031 C 180.347656 656.265625 180.003906 659.695312 178.976562 662.097656 C 202.984375 655.234375 226.996094 648.71875 251.007812 642.542969 C 268.5 637.742188 285.996094 633.28125 303.144531 628.824219 C 304.171875 627.109375 305.203125 625.738281 306.574219 624.363281 C 311.378906 619.90625 317.550781 617.847656 323.382812 621.277344 C 323.726562 621.621094 323.726562 622.308594 323.382812 622.648438 C 322.351562 623.335938 321.324219 624.023438 319.953125 624.363281 L 330.585938 621.621094 C 338.476562 619.5625 346.363281 616.820312 354.253906 615.445312 C 369.003906 608.242188 384.78125 602.753906 400.558594 597.609375 L 402.617188 596.238281 C 410.507812 593.492188 418.738281 590.40625 426.972656 589.035156 C 433.144531 588.007812 440.003906 589.378906 442.40625 595.550781 C 445.492188 597.609375 448.238281 600.011719 450.980469 602.414062 C 453.039062 604.128906 454.753906 605.84375 456.8125 607.558594 L 457.15625 607.902344 C 458.871094 609.273438 459.898438 610.300781 460.585938 612.359375 C 460.929688 613.386719 459.898438 615.105469 458.527344 614.761719 C 454.070312 614.417969 450.640625 609.273438 447.894531 606.183594 C 445.492188 603.785156 443.4375 601.382812 441.378906 598.980469 C 440.347656 599.667969 438.632812 599.667969 437.949219 598.296875 C 433.832031 590.75 423.199219 595.894531 417.023438 597.609375 L 408.449219 600.011719 C 403.988281 601.382812 399.875 602.414062 395.414062 603.785156 C 383.753906 607.214844 371.746094 611.332031 360.085938 614.761719 C 361.113281 615.789062 361.113281 618.191406 359.054688 618.875 C 349.792969 622.648438 339.503906 624.363281 329.898438 627.109375 C 323.726562 628.824219 317.550781 630.195312 311.378906 631.910156 C 310.347656 633.625 309.660156 635.683594 309.320312 637.742188 C 308.289062 645.972656 310.347656 655.578125 312.75 663.46875 L 313.09375 664.496094 C 314.808594 671.015625 317.550781 678.902344 323.039062 682.675781 C 324.410156 683.707031 326.125 684.390625 327.839844 684.390625 C 338.476562 678.902344 349.449219 673.414062 360.085938 667.585938 C 362.140625 666.554688 363.859375 667.925781 364.542969 669.640625 C 368.316406 668.957031 372.089844 667.925781 375.519531 666.898438 C 381.351562 664.839844 385.808594 661.066406 391.296875 658.664062 C 401.929688 653.519531 412.566406 659.695312 422.167969 664.496094 L 424.226562 665.527344 C 428.34375 667.585938 437.261719 671.699219 439.320312 665.867188 C 441.378906 660.382812 435.203125 654.550781 431.085938 652.148438 C 426.285156 649.0625 420.796875 647.691406 415.308594 646.316406 C 412.222656 645.632812 409.132812 644.945312 406.046875 644.601562 C 402.617188 644.257812 398.84375 644.257812 395.414062 642.886719 C 393.699219 642.203125 393.355469 639.457031 395.414062 639.113281 C 400.558594 637.742188 407.078125 639.113281 412.566406 640.488281 L 415.308594 641.171875 C 420.796875 642.542969 426.628906 644.257812 431.429688 647.003906 C 435.203125 649.0625 438.976562 652.148438 441.378906 655.578125 C 443.4375 653.519531 446.179688 653.519531 449.265625 654.207031 L 450.980469 654.550781 C 453.382812 655.234375 455.785156 655.578125 458.183594 655.234375 C 458.527344 653.519531 458.871094 651.460938 459.214844 649.746094 C 462.644531 631.910156 466.761719 614.074219 470.875 596.582031 C 478.421875 566.054688 486.996094 535.867188 496.601562 506.027344 L 497.632812 502.941406 C 500.03125 496.078125 501.746094 488.53125 505.175781 482.359375 C 508.609375 476.527344 514.097656 473.097656 520.613281 471.039062 C 527.816406 468.980469 535.707031 467.953125 543.25 466.582031 C 544.964844 466.238281 546.683594 465.894531 548.398438 465.550781 C 547.023438 463.148438 545.996094 460.0625 544.964844 458.003906 L 544.964844 457.664062 C 542.910156 452.859375 541.195312 448.402344 539.476562 443.597656 L 538.105469 440.167969 C 535.019531 431.59375 531.589844 423.019531 527.128906 415.128906 C 522.328125 406.554688 516.152344 399.695312 508.265625 393.863281 C 492.144531 382.199219 472.933594 376.027344 457.5 363.675781 C 456.8125 363.335938 457.84375 362.304688 458.183594 362.648438 C 468.476562 367.792969 479.792969 371.566406 490.769531 375.683594 L 492.828125 376.367188 C 501.40625 379.800781 510.324219 383.570312 517.527344 389.058594 C 525.757812 395.234375 532.273438 402.78125 537.421875 412.042969 C 542.222656 420.960938 545.308594 430.90625 548.738281 440.511719 L 549.769531 442.914062 C 551.140625 446.6875 552.511719 450.460938 554.226562 454.230469 C 555.601562 457.320312 558 460.40625 559.03125 463.835938 C 562.117188 463.148438 565.203125 462.808594 567.949219 462.121094 C 633.121094 451.144531 698.976562 444.972656 764.835938 442.914062 C 767.578125 442.914062 768.609375 445.3125 768.265625 447.714844 C 762.089844 485.101562 756.261719 522.835938 750.085938 560.222656 C 747.34375 576.6875 744.597656 592.808594 741.855469 609.273438 C 740.480469 617.503906 738.765625 625.738281 737.394531 633.96875 C 736.367188 640.828125 735.679688 647.347656 733.621094 653.863281 C 731.90625 659.695312 729.503906 665.527344 725.046875 669.984375 C 720.585938 674.789062 714.070312 677.1875 707.554688 678.21875 C 691.433594 680.960938 674.625 681.992188 658.160156 684.046875 L 571.035156 693.996094 C 572.40625 705.65625 572.40625 716.976562 571.722656 728.640625 L 571.378906 735.15625 C 571.035156 740.300781 570.691406 745.449219 570.007812 750.59375 C 568.976562 757.109375 566.234375 762.253906 561.773438 767.058594 C 557.65625 771.515625 552.855469 775.289062 548.398438 778.71875 C 543.59375 782.492188 538.449219 785.921875 532.960938 788.324219 L 532.273438 788.667969 C 527.128906 790.722656 517.867188 793.8125 511.007812 792.441406 C 512.039062 796.898438 513.753906 801.699219 512.039062 806.160156 C 511.351562 808.21875 508.609375 809.246094 506.890625 807.53125 C 503.460938 804.101562 503.460938 799.300781 502.433594 794.839844 C 501.746094 790.039062 501.0625 785.238281 500.375 780.777344 C 499.347656 771.515625 498.316406 762.253906 497.972656 752.992188 C 497.632812 743.390625 497.632812 734.128906 498.316406 724.523438 C 498.660156 719.722656 499.003906 714.917969 499.6875 709.773438 C 500.03125 707.714844 500.375 705.660156 500.375 703.601562 C 500.375 702.914062 500.71875 702.226562 500.71875 701.199219 L 492.828125 702.226562 C 480.824219 703.601562 468.820312 704.628906 456.8125 704.972656 C 455.441406 704.972656 454.410156 704.285156 453.726562 703.257812 C 453.039062 704.628906 451.667969 705.316406 449.609375 705.316406 C 432.800781 705.316406 417.023438 699.828125 401.589844 693.308594 C 393.699219 689.878906 386.152344 686.449219 378.605469 683.363281 C 371.402344 680.277344 363.515625 678.21875 356.65625 674.789062 L 338.132812 684.390625 C 338.132812 684.734375 337.789062 685.421875 337.789062 685.761719 C 336.417969 688.164062 334.359375 689.535156 331.613281 690.566406 C 329.214844 691.59375 326.8125 691.9375 324.410156 691.59375 C 310.347656 699.140625 296.285156 706.34375 282.222656 713.546875 L 268.15625 720.75 C 240.03125 735.5 212.246094 750.25 183.777344 764.65625 L 181.71875 767.742188 C 172.113281 772.546875 161.480469 777.691406 150.503906 781.464844 C 150.164062 784.207031 150.503906 786.953125 150.503906 789.695312 L 150.503906 790.382812 C 150.847656 793.8125 151.535156 798.269531 148.789062 800.671875 C 147.417969 802.042969 144.675781 802.042969 143.988281 799.984375 C 142.273438 796.554688 143.644531 791.066406 144.332031 787.292969 C 144.675781 785.921875 144.675781 784.550781 145.015625 783.179688 C 132.667969 786.953125 119.632812 788.667969 107.285156 786.609375 C 94.9375 784.550781 85.332031 777.003906 77.789062 767.398438 C 69.554688 757.453125 64.066406 745.789062 60.980469 733.097656 C 57.550781 719.035156 57.207031 704.285156 57.207031 689.535156 C 57.207031 674.101562 57.894531 658.324219 59.609375 642.886719 C 57.550781 642.542969 55.148438 641.859375 53.089844 642.203125 C 52.0625 643.917969 50.003906 644.601562 48.289062 644.257812 C 44.515625 648.71875 54.460938 653.175781 57.550781 654.207031 C 58.578125 654.550781 58.578125 656.265625 57.207031 656.265625 L 56.519531 656.265625 C 51.71875 655.921875 46.574219 655.234375 43.488281 650.433594 C 41.085938 646.660156 41.769531 642.542969 44.515625 639.457031 C 46.230469 621.964844 50.691406 605.15625 54.804688 588.347656 C 58.921875 571.882812 63.382812 555.421875 67.839844 538.957031 L 69.898438 531.753906 C 77.445312 506.027344 84.992188 479.957031 95.28125 455.261719 C 100.425781 442.914062 106.257812 430.90625 114.148438 419.929688 C 121.691406 409.984375 130.269531 401.410156 140.558594 393.863281 C 159.421875 380.140625 181.375 371.910156 203.328125 364.019531 L 204.359375 363.675781 C 215.675781 359.5625 226.996094 355.445312 237.972656 350.984375 C 247.921875 347.214844 257.179688 342.066406 267.128906 338.296875 C 266.785156 337.609375 266.441406 337.265625 266.101562 336.578125 L 265.757812 336.578125 C 264.726562 337.265625 263.355469 336.921875 262.667969 336.238281 C 260.269531 334.179688 261.296875 331.777344 262.667969 329.375 L 263.011719 329.035156 C 264.726562 326.289062 266.441406 323.546875 268.15625 320.800781 L 269.1875 319.085938 C 271.929688 314.628906 275.019531 309.824219 279.132812 306.394531 C 280.847656 304.679688 282.90625 303.308594 284.964844 302.277344 C 284.621094 301.9375 286.335938 301.25 286.679688 301.59375 C 293.199219 299.191406 300.742188 299.535156 307.945312 300.222656 M 566.917969 695.710938 L 557.65625 696.738281 C 547.710938 697.769531 537.421875 699.140625 527.472656 700.171875 L 505.519531 702.570312 C 505.519531 703.941406 505.175781 704.972656 505.175781 706 C 505.175781 710.804688 504.835938 715.605469 504.835938 720.40625 C 504.492188 730.011719 504.835938 739.960938 505.519531 749.5625 C 506.207031 758.824219 506.890625 768.429688 508.265625 777.691406 L 508.609375 779.40625 L 508.609375 780.433594 C 509.636719 780.433594 510.664062 781.121094 511.351562 782.148438 C 513.066406 784.207031 519.925781 782.148438 522.671875 781.121094 C 527.128906 779.75 530.902344 777.003906 534.675781 774.261719 C 538.449219 771.859375 541.535156 768.773438 544.625 765.683594 L 547.367188 763.285156 C 549.769531 760.882812 552.511719 758.136719 554.226562 754.707031 C 556.285156 750.25 556.628906 745.105469 557.316406 740.300781 C 558 734.472656 559.03125 728.640625 560.058594 722.808594 M 301.429688 634.65625 L 300.402344 635 C 266.101562 644.257812 231.457031 653.519531 196.8125 662.4375 C 179.660156 666.898438 162.511719 670.671875 145.359375 675.128906 L 142.617188 675.816406 C 129.238281 679.246094 115.519531 683.363281 105.226562 693.308594 C 104.886719 693.652344 104.199219 692.96875 104.542969 692.625 C 115.863281 680.277344 131.640625 675.128906 146.730469 671.015625 C 149.476562 670.328125 152.21875 669.300781 155.308594 668.613281 C 134.726562 661.066406 113.460938 654.894531 92.195312 650.089844 C 86.707031 649.0625 81.21875 648.03125 75.386719 647.003906 C 71.613281 646.316406 67.839844 644.945312 64.066406 643.917969 L 60.980469 643.230469 L 60.980469 652.835938 C 60.980469 666.210938 60.980469 679.589844 61.667969 693.308594 L 61.667969 695.710938 C 62.351562 710.804688 63.722656 725.894531 68.871094 739.960938 C 73.328125 751.277344 80.1875 762.253906 89.105469 770.488281 C 93.566406 774.601562 98.710938 778.03125 104.542969 779.75 C 110.03125 781.121094 116.203125 781.464844 121.691406 781.121094 C 149.476562 779.0625 174.171875 763.96875 198.183594 751.621094 C 237.628906 731.382812 277.074219 710.804688 316.179688 690.566406 C 315.148438 689.878906 314.121094 688.851562 313.09375 688.164062 C 307.945312 682.675781 304.859375 675.128906 303.144531 667.925781 C 301.085938 660.382812 300.058594 651.804688 300.058594 643.917969 M 351.507812 698.113281 C 351.851562 697.769531 352.195312 698.113281 352.195312 698.453125 C 352.195312 701.542969 350.824219 704.285156 349.449219 707.03125 L 349.449219 707.375 C 348.078125 710.804688 346.363281 713.890625 344.648438 717.320312 C 341.21875 723.835938 337.789062 730.355469 334.015625 736.527344 C 326.46875 749.21875 318.238281 761.570312 308.632812 772.546875 C 306.574219 774.945312 302.800781 771.859375 304.171875 769.113281 C 311.035156 756.082031 318.921875 743.730469 327.15625 731.382812 C 331.273438 725.210938 335.386719 719.035156 339.503906 713.203125 C 341.21875 710.804688 342.933594 708.058594 344.648438 705.65625 L 345.679688 704.285156 M 760.035156 451.832031 C 725.390625 452.859375 690.746094 455.261719 656.445312 458.691406 C 624.542969 462.121094 592.644531 466.238281 560.746094 471.726562 C 554.226562 472.753906 547.367188 474.125 540.851562 475.15625 L 536.734375 475.839844 C 530.21875 477.214844 521.984375 477.558594 516.152344 480.988281 C 509.980469 484.761719 508.265625 492.648438 506.207031 498.824219 C 503.804688 506.371094 501.40625 513.914062 499.003906 521.460938 C 490.429688 551.988281 482.195312 582.519531 474.648438 613.046875 C 470.875 628.136719 467.789062 643.574219 464.359375 658.664062 C 461.273438 672.042969 457.84375 685.421875 454.410156 699.140625 C 454.753906 698.796875 455.441406 698.453125 456.128906 698.453125 C 473.621094 694.683594 491.800781 692.96875 509.636719 690.910156 L 511.351562 690.566406 C 529.875 688.507812 548.398438 686.105469 566.574219 684.046875 L 688.6875 670.328125 C 695.890625 669.640625 703.78125 669.300781 710.640625 667.585938 C 722.644531 664.152344 725.390625 651.121094 727.449219 640.488281 L 727.449219 640.144531 C 733.621094 607.902344 738.425781 575.65625 743.910156 543.414062 M 457.15625 661.753906 C 452.355469 661.410156 445.835938 656.949219 442.40625 657.292969 C 444.464844 660.382812 445.152344 664.152344 444.121094 667.925781 C 441.035156 678.558594 427.3125 673.070312 420.796875 669.984375 C 415.308594 667.242188 410.164062 664.152344 404.332031 662.78125 C 397.472656 661.410156 393.011719 664.152344 387.183594 667.242188 C 382.378906 669.640625 377.234375 671.699219 372.089844 672.730469 C 369.34375 673.070312 366.601562 673.414062 363.859375 673.070312 C 363.859375 673.070312 363.515625 673.414062 363.171875 673.414062 L 361.457031 673.757812 C 367.972656 674.101562 374.148438 676.160156 380.320312 677.875 C 386.496094 679.589844 392.328125 681.992188 398.5 684.390625 L 404.332031 686.792969 C 418.738281 692.28125 433.832031 697.769531 449.609375 697.769531 C 450.640625 697.769531 451.667969 698.113281 452.355469 698.453125 M 430.402344 627.796875 C 435.203125 627.109375 439.320312 627.796875 443.09375 630.882812 C 447.550781 634.65625 450.640625 640.828125 457.15625 641.171875 C 459.214844 641.171875 459.558594 643.917969 457.5 644.601562 C 452.695312 645.972656 448.582031 643.574219 445.492188 640.144531 L 443.4375 637.742188 C 440.347656 634.3125 437.261719 631.910156 431.773438 631.910156 C 425.941406 632.253906 419.769531 633.625 413.9375 634.3125 C 407.417969 635 400.558594 635.683594 394.042969 636.371094 C 393.699219 636.371094 393.699219 636.027344 394.042969 635.683594 L 401.589844 633.96875 M 425.941406 608.929688 L 426.628906 608.929688 C 433.488281 608.242188 439.664062 608.242188 445.835938 612.015625 L 446.867188 612.703125 C 452.355469 616.132812 458.183594 619.90625 461.617188 625.394531 C 462.300781 626.421875 461.273438 627.453125 460.242188 627.109375 C 454.070312 625.050781 449.265625 620.25 443.777344 616.820312 C 437.605469 612.703125 431.085938 613.386719 423.882812 614.074219 C 417.023438 614.761719 410.164062 615.445312 403.304688 616.820312 C 396.785156 617.847656 390.613281 619.5625 384.09375 620.25 C 383.410156 620.25 383.066406 619.21875 383.753906 618.875 C 390.269531 615.445312 397.816406 614.074219 405.019531 612.703125 M 632.777344 541.355469 C 632.089844 538.269531 635.863281 536.898438 637.921875 539.296875 L 638.265625 539.984375 C 642.039062 545.128906 647.871094 551.988281 647.527344 558.851562 C 650.957031 558.851562 654.386719 560.90625 655.757812 563.996094 C 656.445312 565.367188 656.445312 567.082031 656.445312 568.796875 C 659.53125 569.140625 662.960938 571.199219 664.675781 572.914062 C 667.765625 576.34375 668.105469 580.800781 665.707031 584.574219 C 660.902344 592.808594 649.925781 595.894531 641.007812 596.582031 L 640.667969 596.582031 C 631.40625 597.265625 617.683594 596.925781 611.511719 589.035156 C 605.335938 581.144531 612.195312 574.972656 619.054688 571.542969 C 617.339844 569.828125 616.3125 567.425781 617.339844 565.023438 C 619.054688 560.566406 624.542969 558.851562 627.632812 555.761719 C 631.40625 552.332031 633.804688 547.1875 632.777344 541.355469 M 637.921875 548.214844 C 636.894531 552.675781 634.492188 556.792969 630.71875 559.878906 C 629.347656 561.25 627.976562 562.28125 626.261719 563.308594 L 625.917969 563.308594 C 624.542969 563.996094 621.113281 565.710938 621.457031 567.425781 C 621.800781 569.140625 627.289062 571.882812 628.660156 571.882812 C 629.003906 571.882812 629.347656 572.570312 629.003906 572.570312 C 626.261719 573.941406 623.859375 574.285156 621.113281 572.914062 C 619.398438 574.628906 617.683594 576.6875 615.96875 578.402344 C 612.882812 581.832031 613.910156 585.261719 617.683594 587.664062 C 623.515625 591.777344 632.433594 591.4375 638.949219 591.09375 C 645.8125 590.75 653.015625 589.378906 658.503906 584.574219 L 658.847656 584.234375 C 661.589844 581.488281 664.332031 577.371094 659.875 574.972656 C 658.160156 573.941406 656.101562 573.941406 654.730469 573.597656 C 653.359375 576.6875 650.613281 579.085938 647.527344 579.429688 C 645.125 579.773438 643.410156 576.6875 645.46875 575.316406 L 645.8125 574.972656 C 648.554688 573.257812 650.957031 570.511719 650.957031 566.738281 C 650.957031 564.339844 647.527344 560.90625 645.125 563.308594 C 643.066406 565.367188 639.980469 562.625 641.007812 560.222656 M 193.039062 423.703125 C 193.039062 423.019531 193.726562 423.019531 194.066406 423.359375 C 198.527344 431.25 200.929688 440.855469 203.328125 449.429688 C 205.730469 458.347656 207.789062 467.609375 209.503906 476.527344 C 213.277344 495.050781 214.992188 513.574219 215.335938 532.4375 C 215.335938 535.183594 210.875 535.867188 210.53125 533.125 C 207.789062 514.601562 205.042969 496.421875 201.957031 477.898438 C 200.242188 468.636719 198.527344 459.378906 196.8125 450.117188 M 236.601562 437.082031 C 236.257812 436.050781 237.972656 435.710938 238.316406 436.738281 C 247.234375 458.691406 250.320312 483.386719 244.488281 506.371094 C 243.460938 509.800781 238.316406 508.425781 239.003906 504.996094 M 351.507812 417.875 C 351.507812 417.1875 352.539062 416.84375 352.882812 417.53125 C 356.996094 423.359375 358.710938 431.25 366.257812 434.335938 C 370.03125 435.710938 374.148438 435.710938 377.234375 438.109375 C 379.292969 439.824219 381.007812 442.570312 379.292969 445.3125 C 378.605469 446 377.234375 446.6875 376.546875 445.65625 C 375.519531 444.285156 374.832031 442.570312 373.460938 441.539062 C 371.402344 440.167969 368.660156 440.167969 366.601562 439.484375 C 363.515625 438.453125 361.113281 437.082031 358.710938 435.023438 M 421.824219 318.742188 C 422.167969 318.398438 422.511719 318.742188 422.855469 319.085938 C 423.199219 319.773438 423.199219 320.117188 422.855469 320.457031 C 423.542969 321.832031 424.226562 325.261719 424.226562 325.605469 C 424.570312 327.660156 425.257812 329.375 425.597656 331.433594 C 426.628906 335.207031 427.3125 339.324219 428.34375 343.097656 C 429.371094 347.214844 430.746094 351.328125 432.117188 355.445312 C 432.117188 355.789062 432.460938 356.132812 432.460938 356.132812 L 432.460938 356.472656 C 432.800781 356.132812 433.488281 356.472656 433.144531 356.816406 C 433.144531 357.160156 433.144531 357.847656 432.800781 358.1875 L 432.800781 358.53125 C 433.832031 360.933594 434.515625 363.675781 432.800781 365.734375 C 432.117188 366.421875 431.429688 367.109375 430.746094 367.109375 C 429.371094 371.566406 427.65625 376.027344 425.597656 380.484375 L 424.914062 381.855469 C 422.167969 388.03125 419.425781 394.207031 414.964844 399.695312 C 410.164062 405.523438 403.648438 409.640625 399.53125 415.816406 C 397.472656 418.902344 396.101562 421.988281 395.070312 425.417969 L 394.726562 426.792969 C 394.042969 429.191406 393.011719 431.59375 390.957031 432.964844 C 390.269531 433.308594 389.238281 433.308594 388.554688 432.621094 C 384.09375 427.820312 388.898438 418.902344 391.640625 414.101562 C 395.414062 407.582031 400.902344 403.464844 406.390625 398.664062 C 412.222656 393.519531 416.339844 386.316406 419.769531 379.457031 C 422.167969 375.339844 424.226562 370.878906 426.628906 366.421875 C 424.226562 364.363281 423.542969 360.246094 422.511719 357.160156 L 422.511719 356.816406 C 421.140625 352.015625 420.109375 347.214844 419.425781 342.410156 C 418.738281 337.609375 418.394531 333.148438 418.738281 328.347656 L 418.738281 327.320312 M 430.746094 341.039062 C 430.058594 340.351562 431.085938 339.324219 431.773438 339.667969 C 436.234375 340.695312 440.347656 343.097656 444.464844 345.5 L 444.808594 345.839844 C 447.894531 347.554688 451.324219 349.613281 452.695312 353.042969 C 454.410156 356.816406 454.410156 360.933594 454.070312 364.707031 L 454.070312 365.050781 C 453.726562 369.851562 453.726562 374.652344 452.695312 379.113281 C 452.355469 381.515625 449.953125 382.199219 448.238281 381.515625 C 446.179688 388.375 440.003906 393.519531 435.546875 399.007812 C 429.714844 405.867188 431.085938 415.128906 431.429688 423.703125 C 431.773438 427.132812 427.3125 428.164062 425.257812 426.105469 L 420.109375 421.988281 C 419.425781 421.304688 418.394531 420.617188 417.710938 419.929688 C 417.023438 419.246094 416.339844 418.902344 415.652344 418.214844 L 414.621094 417.1875 C 414.28125 416.84375 412.222656 414.441406 411.535156 414.441406 C 410.164062 414.101562 406.734375 417.875 405.363281 419.246094 C 403.304688 421.304688 401.246094 423.703125 399.1875 426.105469 C 398.84375 426.449219 398.160156 426.105469 398.5 425.761719 C 400.214844 422.332031 401.929688 418.902344 404.332031 415.472656 L 404.675781 414.785156 C 406.046875 412.726562 408.105469 408.953125 410.851562 408.613281 C 414.28125 407.925781 417.367188 411.011719 419.769531 413.070312 C 420.796875 413.757812 422.167969 414.785156 423.199219 415.816406 C 423.199219 409.640625 423.882812 403.464844 426.972656 397.980469 C 429.371094 394.207031 432.460938 391.460938 435.546875 388.03125 C 438.632812 384.257812 440.347656 380.140625 443.4375 376.367188 C 443.777344 376.027344 444.464844 375.683594 444.808594 375.683594 C 444.808594 372.597656 445.492188 369.507812 445.835938 366.765625 L 445.835938 365.734375 C 446.179688 362.648438 446.867188 358.53125 445.492188 355.445312 C 444.121094 352.703125 440.691406 350.644531 437.949219 348.585938 L 435.890625 346.871094 M 287.367188 306.738281 C 285.996094 307.425781 284.621094 308.453125 283.59375 309.824219 C 280.164062 313.597656 277.417969 318.398438 275.019531 322.859375 C 273.644531 325.261719 272.273438 327.660156 270.902344 330.0625 C 270.214844 331.089844 269.871094 332.121094 269.1875 333.148438 C 268.84375 333.492188 268.15625 334.523438 267.816406 335.207031 C 268.15625 335.894531 268.84375 336.578125 269.1875 337.265625 C 269.53125 337.609375 282.222656 351.328125 286.679688 356.816406 C 293.539062 365.050781 299.714844 373.96875 304.859375 383.230469 C 310.003906 392.492188 313.777344 402.09375 318.582031 411.699219 C 320.980469 416.5 323.726562 420.960938 326.8125 425.078125 C 326.8125 425.078125 327.15625 425.417969 327.15625 425.417969 C 328.527344 421.988281 331.613281 418.214844 333.328125 416.15625 L 333.328125 415.816406 C 337.101562 411.011719 340.875 406.210938 344.648438 401.410156 C 348.421875 396.949219 351.851562 392.832031 355.625 388.71875 L 356.996094 387.003906 C 359.742188 384.257812 362.828125 379.800781 366.945312 377.742188 C 366.601562 377.054688 365.914062 376.367188 365.574219 375.683594 C 361.800781 370.878906 356.996094 367.449219 351.851562 364.363281 L 348.421875 362.304688 C 336.074219 354.757812 324.070312 346.871094 313.09375 337.265625 C 307.261719 332.121094 301.773438 326.632812 296.96875 320.800781 L 295.253906 318.742188 M 307.945312 302.964844 C 302.117188 303.308594 295.941406 303.308594 290.453125 305.367188 C 295.253906 309.824219 299.714844 314.628906 304.515625 319.429688 C 304.859375 316.34375 305.890625 313.253906 306.574219 310.167969 " fill-opacity="1" fill-rule="evenodd"/></g><path fill="#ffffff" d="M 367.066406 17.203125 C 408.230469 17.203125 450.761719 49.101562 465.855469 69.339844 C 478.546875 86.492188 485.40625 164.011719 485.40625 216.148438 C 485.40625 227.125 491.582031 247.707031 489.523438 258.339844 C 483.003906 296.757812 454.878906 329 399.3125 329 C 343.742188 329 303.609375 307.046875 262.449219 247.707031 C 242.210938 247.707031 232.609375 232.269531 232.609375 207.917969 C 232.609375 191.796875 239.125 180.820312 251.816406 174.644531 C 247.015625 110.84375 250.789062 70.371094 262.449219 53.90625 C 279.945312 28.867188 325.90625 17.203125 367.066406 17.203125 Z M 367.066406 17.203125 " fill-opacity="1" fill-rule="evenodd"/><path fill="#007d53" d="M 349.574219 3.828125 C 375.644531 1.082031 401.027344 3.484375 426.75 7.941406 C 428.808594 8.285156 429.839844 9.65625 430.183594 11.03125 C 442.1875 11.714844 454.191406 12.402344 466.199219 13.085938 C 470.65625 13.429688 473.058594 17.546875 471 21.664062 C 470.65625 22.347656 470.3125 23.035156 469.628906 24.0625 L 470.3125 23.722656 C 474.085938 22.691406 477.859375 22.003906 481.289062 23.722656 C 485.75 26.121094 487.464844 31.265625 486.433594 36.070312 C 486.09375 37.441406 485.75 38.46875 485.40625 39.5 C 486.433594 39.5 487.464844 39.5 488.492188 39.5 C 493.636719 40.183594 497.753906 44.300781 497.753906 49.445312 C 498.097656 57.679688 492.953125 65.910156 486.777344 71.398438 C 487.808594 73.113281 488.152344 75.515625 487.808594 77.574219 C 487.121094 82.03125 484.035156 84.433594 480.261719 86.148438 C 481.632812 90.949219 482.664062 96.097656 481.976562 101.242188 C 481.976562 102.957031 480.261719 104.328125 478.546875 104.671875 C 484.71875 122.164062 487.808594 140 490.207031 157.152344 C 491.921875 169.5 492.609375 181.847656 492.609375 194.195312 C 492.609375 199.683594 492.609375 205.515625 492.265625 211.003906 L 492.265625 213.0625 C 491.921875 219.234375 491.921875 225.410156 490.894531 231.585938 C 494.667969 237.757812 496.039062 245.648438 496.726562 252.851562 C 497.410156 261.769531 496.382812 270.6875 493.636719 278.921875 C 483.347656 310.476562 451.792969 330.371094 420.234375 335.515625 C 391.078125 340.320312 357.121094 333.800781 339.96875 307.390625 C 339.628906 307.046875 340.3125 306.703125 340.65625 307.046875 C 353.003906 316.992188 367.066406 321.453125 382.503906 323.511719 C 409.257812 327.285156 439.101562 320.765625 460.367188 304.300781 C 470.65625 296.414062 477.859375 284.40625 481.289062 272.058594 C 483.003906 265.542969 483.691406 259.023438 483.003906 252.164062 C 482.320312 245.304688 479.230469 239.816406 477.515625 233.300781 C 476.832031 231.242188 477.515625 229.183594 478.890625 227.8125 C 479.230469 222.667969 480.261719 217.519531 480.605469 212.375 C 480.945312 206.542969 481.289062 200.714844 481.289062 194.882812 C 481.289062 182.878906 480.949219 170.527344 479.917969 158.523438 C 477.515625 135.542969 472.371094 113.933594 469.628906 91.980469 C 468.597656 93.007812 466.882812 93.351562 465.511719 92.664062 L 464.484375 91.980469 C 458.308594 92.664062 452.132812 91.636719 446.304688 89.921875 C 440.128906 88.207031 434.640625 85.121094 429.496094 81.347656 C 428.464844 86.148438 428.125 90.949219 428.125 96.097656 C 428.125 99.183594 424.695312 100.898438 422.292969 99.527344 C 410.628906 93.695312 399.652344 86.835938 389.363281 79.289062 C 387.992188 85.460938 386.960938 91.636719 385.589844 98.152344 C 385.246094 100.554688 382.160156 101.582031 380.101562 100.554688 C 372.214844 96.097656 365.695312 89.921875 360.207031 83.0625 C 359.179688 85.121094 358.148438 87.175781 356.777344 89.234375 L 355.0625 91.980469 C 353.347656 95.066406 351.289062 98.496094 347.515625 99.527344 C 343.742188 100.554688 340.65625 98.152344 339.285156 94.722656 C 338.941406 93.695312 338.597656 92.664062 338.253906 91.292969 C 335.167969 98.839844 331.394531 106.042969 327.277344 112.902344 C 321.105469 123.195312 313.558594 132.453125 306.011719 142.058594 C 303.609375 144.804688 299.839844 142.058594 299.496094 139.316406 C 299.152344 137.601562 299.152344 135.886719 299.152344 134.511719 C 294.691406 143.429688 290.234375 152.007812 285.433594 160.238281 L 286.117188 162.984375 C 288.175781 171.214844 289.890625 179.445312 291.605469 187.679688 C 292.292969 190.421875 290.921875 194.195312 287.832031 194.539062 C 284.058594 195.226562 280.628906 196.941406 276.855469 195.570312 C 272.742188 194.195312 272.054688 190.421875 269.996094 187.335938 C 269.652344 186.648438 269.308594 185.964844 268.625 185.621094 C 268.28125 185.964844 267.59375 185.621094 267.9375 185.277344 L 268.28125 184.59375 C 266.566406 182.878906 264.507812 181.164062 262.792969 179.789062 C 258.335938 179.105469 253.53125 179.789062 250.445312 181.503906 C 243.585938 185.621094 240.496094 193.855469 240.496094 201.742188 C 240.496094 210.660156 243.242188 220.953125 248.042969 228.496094 C 250.101562 231.925781 252.847656 235.015625 256.617188 236.386719 C 260.390625 237.757812 264.507812 237.414062 268.28125 238.789062 C 270.683594 239.816406 272.398438 242.5625 270.683594 244.960938 C 270.683594 245.304688 270.339844 245.304688 270.339844 245.304688 L 271.367188 246.675781 C 272.054688 247.707031 273.082031 248.734375 273.769531 250.105469 C 275.828125 252.164062 277.886719 254.566406 279.601562 256.625 C 283.375 260.742188 286.804688 264.855469 290.234375 268.972656 C 293.664062 272.746094 297.09375 276.519531 300.867188 279.949219 C 304.296875 283.378906 308.757812 286.125 311.84375 289.894531 C 314.929688 293.328125 315.617188 299.5 310.816406 301.558594 C 305.328125 303.960938 300.179688 298.472656 296.40625 295.042969 C 289.546875 288.523438 283.03125 281.320312 278.230469 273.089844 C 273.425781 276.519531 266.222656 276.863281 261.078125 273.433594 C 258.335938 271.714844 256.617188 268.628906 255.589844 265.542969 C 254.5625 265.886719 253.875 265.886719 252.847656 265.886719 C 252.503906 266.230469 251.816406 266.570312 251.472656 266.570312 C 247.699219 268.628906 243.242188 267.601562 241.527344 263.484375 C 240.15625 259.710938 241.527344 255.59375 242.898438 252.164062 L 243.242188 251.480469 C 243.925781 249.421875 244.957031 247.363281 245.984375 245.304688 C 242.898438 242.902344 240.496094 240.160156 238.441406 237.074219 C 231.234375 226.441406 227.464844 210.660156 229.179688 197.96875 C 230.207031 190.421875 233.636719 182.191406 239.8125 177.046875 L 239.46875 176.359375 C 237.753906 172.242188 236.382812 167.785156 235.351562 163.324219 C 234.324219 158.179688 233.636719 152.691406 233.292969 147.546875 C 232.265625 136.226562 232.609375 124.910156 233.980469 113.589844 C 236.722656 92.664062 243.585938 72.085938 255.589844 54.589844 C 252.160156 50.476562 249.414062 45.671875 250.789062 40.183594 C 251.472656 37.785156 252.847656 35.382812 255.246094 33.667969 C 256.617188 32.980469 257.992188 32.640625 259.019531 31.953125 L 259.363281 31.609375 C 260.050781 31.265625 259.363281 31.265625 259.019531 29.894531 C 257.648438 24.0625 258.675781 18.574219 265.195312 16.519531 C 271.367188 14.800781 276.855469 18.574219 280.628906 23.035156 C 289.890625 16.519531 302.238281 13.085938 313.214844 10 C 324.191406 7.257812 336.882812 5.199219 349.574219 3.828125 Z M 248.730469 199.339844 C 248.730469 194.539062 253.1875 191.796875 257.648438 192.480469 C 260.734375 193.167969 263.136719 194.882812 265.539062 196.597656 L 266.566406 197.625 C 269.308594 199.683594 272.742188 202.085938 274.457031 205.515625 C 276.855469 210.316406 271.710938 216.492188 266.910156 213.0625 C 263.480469 210.660156 261.421875 207.230469 259.363281 203.800781 L 259.019531 203.457031 C 257.992188 202.085938 257.304688 200.371094 255.933594 199 L 255.589844 198.65625 C 255.246094 198.3125 254.5625 197.96875 254.21875 197.625 C 253.1875 197.285156 251.128906 197.625 250.445312 199 C 249.757812 200.027344 248.730469 200.027344 248.730469 199.339844 Z M 248.730469 199.339844 " fill-opacity="1" fill-rule="evenodd"/><path fill="#007d53" d="M 436.324219 264.894531 C 431.523438 266.953125 425.691406 267.296875 420.546875 265.921875 C 415.746094 264.207031 411.285156 260.777344 408.542969 256.320312 C 406.140625 252.546875 405.109375 247.742188 406.484375 242.941406 C 406.484375 242.597656 406.828125 242.597656 406.828125 242.597656 C 408.199219 243.628906 408.882812 244.65625 409.914062 245.6875 C 410.941406 247.402344 412.316406 249.117188 413.6875 250.832031 C 416.085938 252.890625 419.175781 254.605469 422.605469 255.289062 C 425.691406 255.976562 428.777344 255.289062 431.867188 253.917969 C 433.582031 252.890625 434.953125 251.859375 436.324219 250.488281 C 437.695312 249.117188 439.414062 247.742188 441.46875 247.058594 C 443.183594 246.371094 444.902344 247.058594 446.273438 248.085938 C 447.300781 249.117188 448.332031 250.832031 448.332031 252.546875 C 448.332031 255.289062 446.957031 257.691406 445.242188 259.40625 C 442.84375 261.808594 439.414062 263.867188 436.324219 264.894531 Z M 430.492188 196.636719 C 435.980469 200.066406 444.214844 207.613281 438.382812 215.84375 C 431.523438 223.046875 421.574219 214.816406 416.429688 211.042969 C 411.972656 207.953125 406.828125 215.5 410.941406 218.929688 C 446.617188 245.34375 461.023438 197.320312 433.238281 192.519531 C 430.152344 192.175781 429.121094 195.605469 430.492188 196.636719 Z M 372.867188 150.328125 C 380.414062 149.984375 386.933594 153.417969 394.136719 154.789062 C 400.652344 156.160156 407.167969 155.472656 413.6875 153.417969 C 423.976562 150.671875 428.4375 166.449219 418.144531 169.539062 C 410.597656 171.9375 402.710938 171.9375 395.164062 170.910156 C 388.304688 169.878906 382.816406 166.449219 376.296875 164.734375 C 370.808594 163.019531 364.292969 163.707031 358.460938 164.390625 L 356.0625 164.734375 C 352.628906 165.078125 349.199219 165.765625 345.769531 166.449219 C 343.027344 167.136719 339.941406 168.164062 336.851562 168.164062 C 336.507812 168.164062 336.167969 167.824219 336.507812 167.480469 C 339.941406 162.675781 346.457031 158.90625 351.945312 156.503906 L 352.289062 156.503906 C 358.804688 153.417969 365.664062 150.671875 372.867188 150.328125 Z M 370.125 185.316406 C 370.125 180.515625 372.867188 169.878906 379.386719 169.878906 C 383.5 169.878906 385.902344 177.082031 386.589844 184.628906 L 386.589844 184.972656 C 386.933594 189.433594 385.558594 199.722656 379.386719 199.722656 C 373.554688 199.378906 370.46875 190.117188 370.125 185.316406 Z M 468.226562 185.316406 C 468.226562 180.515625 465.480469 169.878906 458.964844 169.878906 C 454.847656 169.878906 452.445312 176.742188 451.761719 183.945312 L 451.761719 184.628906 C 451.417969 189.089844 452.789062 199.378906 458.964844 199.378906 C 465.136719 199.378906 468.226562 190.117188 468.226562 185.316406 Z M 468.226562 144.839844 L 468.566406 144.839844 C 476.457031 145.183594 484.347656 149.644531 486.40625 157.53125 C 486.40625 157.875 486.0625 158.21875 485.71875 157.875 C 479.203125 152.042969 470.625 157.53125 464.453125 160.621094 L 462.050781 161.648438 C 453.820312 165.421875 444.558594 169.878906 435.296875 167.136719 C 430.835938 165.765625 428.09375 161.304688 429.464844 156.847656 C 430.492188 152.730469 435.296875 149.300781 439.753906 151.015625 L 440.097656 151.015625 C 443.527344 152.386719 447.644531 151.015625 451.074219 149.644531 L 453.820312 148.613281 C 458.277344 146.554688 463.078125 144.839844 468.226562 144.839844 Z M 468.226562 144.839844 " fill-opacity="1" fill-rule="evenodd"/><path fill="#007d53" d="M 535.171875 542.480469 C 534.203125 542.480469 533.238281 542.234375 532.351562 541.738281 L 531.144531 541.0625 C 530.308594 540.59375 530.011719 539.539062 530.476562 538.703125 C 530.941406 537.867188 532 537.566406 532.839844 538.035156 L 534.046875 538.710938 C 534.777344 539.113281 535.613281 539.109375 536.339844 538.683594 C 537.066406 538.253906 537.488281 537.523438 537.488281 536.671875 L 537.488281 511.835938 C 537.488281 510.878906 538.265625 510.105469 539.222656 510.105469 C 540.179688 510.105469 540.953125 510.878906 540.953125 511.835938 L 540.953125 536.671875 C 540.953125 538.753906 539.882812 540.621094 538.09375 541.675781 C 537.183594 542.207031 536.175781 542.480469 535.171875 542.480469 Z M 535.171875 542.480469 " fill-opacity="1" fill-rule="nonzero"/><g clip-path="url(#cb9465a972)"><path fill="#007d53" d="M 547.113281 549.75 C 546.390625 549.75 545.667969 549.5625 545.023438 549.1875 L 539.46875 545.933594 C 538.644531 545.449219 538.363281 544.386719 538.847656 543.5625 C 539.328125 542.734375 540.390625 542.460938 541.21875 542.941406 L 546.773438 546.195312 C 546.980469 546.316406 547.230469 546.320312 547.449219 546.195312 L 567.558594 534.417969 C 567.777344 534.289062 567.914062 534.050781 567.914062 533.78125 L 567.914062 510.238281 C 567.914062 509.972656 567.773438 509.730469 567.554688 509.601562 L 547.453125 497.832031 C 547.242188 497.710938 546.984375 497.707031 546.78125 497.832031 L 526.652344 509.605469 C 526.4375 509.730469 526.304688 509.972656 526.304688 510.234375 L 526.304688 533.78125 C 526.304688 534.039062 526.441406 534.289062 526.65625 534.414062 L 532.867188 538.050781 C 533.695312 538.539062 533.972656 539.597656 533.492188 540.421875 C 533.003906 541.246094 531.945312 541.523438 531.117188 541.046875 L 524.90625 537.40625 C 523.628906 536.660156 522.835938 535.269531 522.835938 533.78125 L 522.835938 510.238281 C 522.832031 508.753906 523.625 507.363281 524.902344 506.613281 L 545.019531 494.84375 C 546.3125 494.085938 547.910156 494.082031 549.207031 494.839844 L 569.308594 506.609375 C 570.589844 507.363281 571.382812 508.753906 571.382812 510.238281 L 571.382812 533.785156 C 571.375 535.273438 570.585938 536.65625 569.316406 537.40625 L 549.199219 549.1875 C 548.558594 549.5625 547.835938 549.75 547.113281 549.75 Z M 547.113281 549.75 " fill-opacity="1" fill-rule="nonzero"/></g><path fill="#007d53" d="M 552.746094 533.921875 C 547.546875 533.921875 541.996094 532.132812 541.996094 527.101562 C 541.996094 526.144531 542.773438 525.367188 543.730469 525.367188 C 544.6875 525.367188 545.460938 526.144531 545.460938 527.101562 C 545.460938 529.75 550.039062 530.457031 552.746094 530.457031 C 557.574219 530.457031 560.027344 529.933594 560.027344 527.101562 C 560.027344 525.675781 558.289062 525.121094 554.019531 524.101562 L 552.324219 523.695312 C 551.808594 523.566406 551.261719 523.445312 550.699219 523.320312 C 547.023438 522.511719 541.992188 521.402344 541.992188 516.921875 C 541.992188 511.894531 547.546875 510.101562 552.742188 510.101562 C 557.9375 510.101562 563.492188 511.894531 563.492188 516.921875 C 563.492188 517.878906 562.714844 518.65625 561.757812 518.65625 C 560.800781 518.65625 560.023438 517.878906 560.023438 516.921875 C 560.023438 514.273438 555.445312 513.570312 552.742188 513.570312 C 550.039062 513.570312 545.460938 514.277344 545.460938 516.921875 C 545.460938 518.492188 548.054688 519.1875 551.445312 519.933594 C 552.039062 520.066406 552.617188 520.195312 553.160156 520.332031 L 554.820312 520.730469 C 559.28125 521.792969 563.492188 522.792969 563.492188 527.101562 C 563.492188 533.921875 556.234375 533.921875 552.746094 533.921875 Z M 552.746094 533.921875 " fill-opacity="1" fill-rule="nonzero"/><path fill="#007d53" d="M 692.027344 511.585938 C 691.191406 511.585938 690.515625 510.910156 690.515625 510.074219 L 690.515625 504.90625 C 690.574219 501.496094 692.730469 499.476562 696.285156 499.476562 L 707.363281 499.476562 C 711.976562 499.476562 714.726562 496.882812 714.726562 492.535156 L 714.726562 487.367188 C 714.726562 486.53125 715.40625 485.855469 716.242188 485.855469 C 717.078125 485.855469 717.753906 486.53125 717.753906 487.367188 L 717.753906 492.414062 C 717.753906 498.589844 713.675781 502.503906 707.363281 502.503906 L 696.285156 502.503906 C 693.90625 502.503906 693.5625 503.730469 693.542969 504.933594 L 693.542969 510.074219 C 693.542969 510.910156 692.863281 511.585938 692.027344 511.585938 Z M 692.027344 511.585938 " fill-opacity="1" fill-rule="nonzero"/><g clip-path="url(#690167a19b)"><path fill="#007d53" d="M 702.460938 523.191406 C 700.511719 523.191406 698.519531 523.039062 696.625 522.730469 C 692.910156 522.101562 690.515625 519.246094 690.515625 515.460938 L 690.515625 504.90625 C 690.515625 504.070312 691.191406 503.394531 692.027344 503.394531 C 692.863281 503.394531 693.542969 504.070312 693.542969 504.90625 L 693.542969 515.460938 C 693.542969 517.761719 694.878906 519.359375 697.121094 519.742188 C 700.628906 520.308594 704.476562 520.304688 707.675781 519.71875 C 709.566406 519.398438 710.75 518.917969 711.3125 518.253906 C 711.769531 517.714844 711.960938 516.878906 711.960938 515.457031 L 711.960938 510.574219 L 703.628906 510.574219 C 702.792969 510.574219 702.113281 509.894531 702.113281 509.058594 C 702.113281 508.222656 702.792969 507.546875 703.628906 507.546875 L 713.476562 507.546875 C 714.3125 507.546875 714.988281 508.222656 714.988281 509.058594 L 714.988281 515.457031 C 714.988281 516.921875 714.832031 518.78125 713.621094 520.210938 C 712.566406 521.453125 710.84375 522.246094 708.203125 522.699219 C 706.425781 523.027344 704.464844 523.191406 702.460938 523.191406 Z M 702.460938 523.191406 " fill-opacity="1" fill-rule="nonzero"/></g><g clip-path="url(#60ec0dd6b1)"><path fill="#007d53" d="M 717.632812 510.578125 L 713.476562 510.578125 C 712.640625 510.578125 711.964844 509.898438 711.964844 509.0625 C 711.964844 508.226562 712.640625 507.550781 713.476562 507.550781 L 717.632812 507.550781 C 720.554688 507.550781 721.941406 506.515625 722.582031 503.863281 C 723.554688 499.789062 723.554688 497.421875 722.578125 493.308594 C 721.695312 489.632812 720.375 488.882812 718.664062 488.882812 L 717.753906 488.882812 L 717.753906 492.414062 C 717.753906 493.25 717.078125 493.988281 716.242188 493.988281 C 715.40625 493.988281 714.726562 493.367188 714.726562 492.53125 L 714.726562 487.367188 C 714.726562 486.53125 715.40625 485.855469 716.242188 485.855469 L 718.664062 485.855469 C 723.355469 485.855469 724.824219 489.707031 725.523438 492.601562 C 726.605469 497.15625 726.605469 500.0625 725.523438 504.574219 C 724.5625 508.558594 721.90625 510.578125 717.632812 510.578125 Z M 717.632812 510.578125 " fill-opacity="1" fill-rule="nonzero"/></g><path fill="#007d53" d="M 706.152344 518.652344 C 704.207031 518.652344 702.621094 517.0625 702.621094 515.113281 C 702.621094 513.167969 704.207031 511.585938 706.152344 511.585938 C 708.101562 511.585938 709.683594 513.167969 709.683594 515.113281 C 709.664062 517.074219 708.082031 518.652344 706.152344 518.652344 Z M 706.152344 514.613281 C 705.875 514.613281 705.648438 514.839844 705.648438 515.113281 C 705.648438 515.664062 706.652344 515.671875 706.65625 515.101562 C 706.65625 514.839844 706.429688 514.613281 706.152344 514.613281 Z M 706.152344 514.613281 " fill-opacity="1" fill-rule="nonzero"/><path fill="#007d53" d="M 687.996094 512.089844 C 687.160156 512.089844 686.480469 511.414062 686.480469 510.578125 L 686.480469 505.53125 C 686.480469 499.355469 690.558594 495.441406 696.875 495.441406 L 707.953125 495.441406 C 710.332031 495.441406 710.675781 494.214844 710.695312 493.011719 L 710.695312 487.871094 C 710.695312 487.035156 711.375 486.359375 712.210938 486.359375 C 713.046875 486.359375 713.722656 487.035156 713.722656 487.871094 L 713.722656 493.042969 C 713.664062 496.449219 711.503906 498.46875 707.953125 498.46875 L 696.875 498.46875 C 692.261719 498.46875 689.507812 501.0625 689.507812 505.410156 L 689.507812 510.578125 C 689.507812 511.414062 688.832031 512.089844 687.996094 512.089844 Z M 687.996094 512.089844 " fill-opacity="1" fill-rule="nonzero"/><g clip-path="url(#838c810740)"><path fill="#007d53" d="M 712.210938 494.554688 C 711.375 494.554688 710.695312 493.875 710.695312 493.042969 L 710.695312 482.484375 C 710.695312 480.179688 709.359375 478.582031 707.117188 478.203125 C 703.609375 477.632812 699.757812 477.636719 696.5625 478.222656 C 694.671875 478.546875 693.488281 479.023438 692.921875 479.6875 C 692.46875 480.226562 692.273438 481.0625 692.273438 482.484375 L 692.273438 487.367188 L 700.605469 487.367188 C 701.441406 487.367188 702.121094 488.046875 702.121094 488.882812 C 702.121094 489.71875 701.441406 490.394531 700.605469 490.394531 L 690.761719 490.394531 C 689.925781 490.394531 689.246094 489.71875 689.246094 488.882812 L 689.246094 482.484375 C 689.246094 481.019531 689.402344 479.160156 690.613281 477.730469 C 691.667969 476.488281 693.390625 475.695312 696.035156 475.242188 C 699.546875 474.605469 703.769531 474.59375 707.613281 475.21875 C 711.328125 475.847656 713.726562 478.699219 713.726562 482.484375 L 713.726562 493.042969 C 713.722656 493.875 713.046875 494.554688 712.210938 494.554688 Z M 712.210938 494.554688 " fill-opacity="1" fill-rule="nonzero"/></g><g clip-path="url(#2f1c553e6e)"><path fill="#007d53" d="M 687.996094 512.089844 L 685.574219 512.089844 C 680.878906 512.089844 679.410156 508.242188 678.714844 505.34375 C 677.632812 500.789062 677.632812 497.882812 678.714844 493.371094 C 679.675781 489.386719 682.328125 487.367188 686.601562 487.367188 L 690.761719 487.367188 C 691.59375 487.367188 692.273438 488.046875 692.273438 488.882812 C 692.273438 489.71875 691.59375 490.394531 690.761719 490.394531 L 686.601562 490.394531 C 683.683594 490.394531 682.296875 491.429688 681.65625 494.082031 C 680.679688 498.15625 680.679688 500.523438 681.65625 504.636719 C 682.542969 508.3125 683.863281 509.0625 685.574219 509.0625 L 686.480469 509.0625 L 686.480469 505.53125 C 686.480469 504.695312 687.160156 503.957031 687.996094 503.957031 C 688.832031 503.957031 689.507812 504.578125 689.507812 505.414062 L 689.507812 510.578125 C 689.507812 511.414062 688.832031 512.089844 687.996094 512.089844 Z M 687.996094 512.089844 " fill-opacity="1" fill-rule="nonzero"/></g><path fill="#007d53" d="M 698.085938 486.359375 C 696.136719 486.359375 694.550781 484.777344 694.550781 482.832031 C 694.570312 480.875 696.15625 479.296875 698.085938 479.296875 C 700.03125 479.296875 701.617188 480.882812 701.617188 482.832031 C 701.617188 484.777344 700.03125 486.359375 698.085938 486.359375 Z M 698.085938 482.324219 C 697.804688 482.324219 697.582031 482.550781 697.578125 482.84375 C 697.578125 483.371094 698.589844 483.382812 698.589844 482.832031 C 698.589844 482.5625 698.355469 482.324219 698.085938 482.324219 Z M 698.085938 482.324219 " fill-opacity="1" fill-rule="nonzero"/><g clip-path="url(#77ae3e99fb)"><path fill="#007d53" d="M 547.222656 602.859375 C 546.40625 602.832031 545.546875 602.972656 544.6875 603.253906 C 542.96875 603.808594 541.164062 604.898438 539.316406 606.402344 C 538.589844 606.992188 537.859375 607.664062 537.125 608.378906 C 536.410156 607.683594 535.691406 607.023438 534.984375 606.449219 C 533.136719 604.945312 531.339844 603.859375 529.625 603.304688 C 527.90625 602.746094 526.199219 602.730469 524.796875 603.539062 C 523.394531 604.351562 522.558594 605.835938 522.179688 607.601562 C 521.804688 609.363281 521.84375 611.464844 522.222656 613.816406 C 522.355469 614.632812 522.542969 615.488281 522.757812 616.363281 C 521.953125 616.605469 521.175781 616.863281 520.457031 617.144531 C 518.277344 617.992188 516.476562 619.011719 515.164062 620.222656 C 513.851562 621.433594 513.003906 622.902344 513.003906 624.515625 C 513.003906 626.128906 513.851562 627.597656 515.164062 628.808594 C 516.476562 630.015625 518.277344 631.035156 520.457031 631.886719 C 521.226562 632.1875 522.0625 632.460938 522.925781 632.714844 C 522.613281 633.875 522.363281 635 522.191406 636.066406 C 521.8125 638.417969 521.773438 640.519531 522.152344 642.289062 C 522.527344 644.058594 523.367188 645.550781 524.777344 646.363281 C 526.183594 647.179688 527.898438 647.160156 529.621094 646.601562 C 531.339844 646.042969 533.140625 644.957031 534.988281 643.453125 C 535.707031 642.871094 536.433594 642.203125 537.160156 641.496094 C 537.890625 642.207031 538.621094 642.878906 539.339844 643.464844 C 541.1875 644.96875 542.988281 646.050781 544.703125 646.609375 C 546.417969 647.164062 548.125 647.183594 549.527344 646.371094 C 550.929688 645.5625 551.769531 644.078125 552.144531 642.3125 C 552.519531 640.550781 552.480469 638.449219 552.101562 636.097656 C 551.929688 635.027344 551.675781 633.902344 551.367188 632.738281 C 552.257812 632.476562 553.117188 632.199219 553.914062 631.886719 C 556.089844 631.035156 557.890625 630.015625 559.203125 628.808594 C 560.515625 627.597656 561.363281 626.128906 561.363281 624.515625 C 561.363281 622.902344 560.515625 621.433594 559.203125 620.222656 C 557.890625 619.011719 556.089844 617.992188 553.914062 617.144531 C 553.179688 616.855469 552.390625 616.597656 551.578125 616.351562 C 551.792969 615.472656 551.984375 614.613281 552.113281 613.789062 C 552.492188 611.4375 552.53125 609.332031 552.15625 607.566406 C 551.777344 605.796875 550.9375 604.304688 549.527344 603.492188 C 548.824219 603.085938 548.042969 602.886719 547.222656 602.859375 Z M 547.128906 604.996094 C 547.640625 605.011719 548.082031 605.132812 548.457031 605.351562 C 549.207031 605.785156 549.761719 606.625 550.054688 608.015625 C 550.351562 609.402344 550.34375 611.277344 549.992188 613.449219 C 549.875 614.195312 549.699219 614.984375 549.503906 615.792969 C 547.355469 615.277344 545 614.890625 542.488281 614.664062 C 541.230469 612.917969 539.933594 611.332031 538.628906 609.917969 C 539.316406 609.246094 540.003906 608.613281 540.671875 608.070312 C 542.382812 606.679688 544 605.734375 545.347656 605.296875 C 546.023438 605.078125 546.613281 604.984375 547.128906 604.996094 Z M 527.1875 605.003906 C 527.703125 604.988281 528.296875 605.082031 528.972656 605.304688 C 530.328125 605.742188 531.945312 606.6875 533.65625 608.078125 C 534.3125 608.613281 534.984375 609.226562 535.660156 609.886719 C 534.34375 611.308594 533.039062 612.914062 531.769531 614.675781 C 529.269531 614.90625 526.921875 615.292969 524.785156 615.8125 C 524.585938 615.007812 524.417969 614.222656 524.296875 613.480469 C 523.949219 611.304688 523.9375 609.429688 524.234375 608.035156 C 524.53125 606.644531 525.089844 605.796875 525.847656 605.359375 C 526.226562 605.140625 526.671875 605.019531 527.1875 605.003906 Z M 537.160156 611.429688 C 538.015625 612.363281 538.871094 613.382812 539.722656 614.480469 C 538.886719 614.445312 538.042969 614.421875 537.183594 614.421875 C 536.308594 614.421875 535.449219 614.445312 534.597656 614.480469 C 535.449219 613.382812 536.304688 612.363281 537.160156 611.429688 Z M 537.183594 616.546875 C 538.613281 616.546875 540.007812 616.605469 541.359375 616.703125 C 542.292969 618.042969 543.203125 619.464844 544.070312 620.964844 C 544.835938 622.289062 545.523438 623.605469 546.152344 624.910156 C 545.519531 626.230469 544.816406 627.566406 544.042969 628.90625 C 543.363281 630.085938 542.652344 631.203125 541.929688 632.285156 C 540.398438 632.410156 538.8125 632.484375 537.183594 632.484375 C 535.515625 632.484375 533.894531 632.40625 532.332031 632.273438 C 531.621094 631.210938 530.921875 630.105469 530.25 628.945312 C 529.480469 627.609375 528.78125 626.277344 528.148438 624.957031 C 528.785156 623.632812 529.484375 622.292969 530.261719 620.949219 C 531.125 619.453125 532.035156 618.039062 532.960938 616.707031 C 534.328125 616.605469 535.738281 616.546875 537.183594 616.546875 Z M 544.066406 616.964844 C 545.800781 617.183594 547.425781 617.484375 548.9375 617.84375 C 548.488281 619.316406 547.9375 620.851562 547.265625 622.441406 C 546.832031 621.601562 546.378906 620.757812 545.890625 619.914062 C 545.300781 618.894531 544.6875 617.917969 544.066406 616.964844 Z M 530.191406 616.984375 C 529.582031 617.917969 528.980469 618.875 528.402344 619.875 C 527.910156 620.730469 527.449219 621.582031 527.011719 622.433594 C 526.347656 620.855469 525.796875 619.324219 525.351562 617.863281 C 526.851562 617.5 528.46875 617.203125 530.191406 616.984375 Z M 551.015625 618.402344 C 551.761719 618.625 552.480469 618.863281 553.140625 619.121094 C 555.148438 619.902344 556.734375 620.832031 557.765625 621.78125 C 558.792969 622.730469 559.242188 623.636719 559.242188 624.515625 C 559.242188 625.394531 558.792969 626.300781 557.765625 627.25 C 556.734375 628.199219 555.148438 629.125 553.140625 629.910156 C 552.40625 630.199219 551.601562 630.457031 550.765625 630.703125 C 550.167969 628.855469 549.40625 626.925781 548.496094 624.957031 C 549.539062 622.699219 550.382812 620.496094 551.015625 618.402344 Z M 523.316406 618.410156 C 523.941406 620.484375 524.773438 622.667969 525.804688 624.902344 C 524.890625 626.882812 524.125 628.820312 523.523438 630.679688 C 522.714844 630.441406 521.9375 630.1875 521.226562 629.910156 C 519.21875 629.125 517.632812 628.199219 516.601562 627.25 C 515.574219 626.300781 515.128906 625.394531 515.128906 624.515625 C 515.128906 623.636719 515.574219 622.730469 516.601562 621.78125 C 517.632812 620.832031 519.21875 619.902344 521.226562 619.121094 C 521.875 618.867188 522.585938 618.632812 523.316406 618.410156 Z M 537.183594 619.6875 C 534.292969 619.6875 531.929688 622.054688 531.929688 624.941406 C 531.929688 627.832031 534.292969 630.195312 537.183594 630.195312 C 540.074219 630.195312 542.4375 627.832031 542.4375 624.941406 C 542.4375 622.054688 540.074219 619.6875 537.183594 619.6875 Z M 537.183594 621.789062 C 538.9375 621.789062 540.335938 623.1875 540.335938 624.941406 C 540.335938 626.695312 538.9375 628.09375 537.183594 628.09375 C 535.429688 628.09375 534.03125 626.695312 534.03125 624.941406 C 534.03125 623.1875 535.429688 621.789062 537.183594 621.789062 Z M 547.292969 627.425781 C 547.84375 628.730469 548.320312 630.007812 548.722656 631.238281 C 547.460938 631.53125 546.117188 631.777344 544.699219 631.972656 C 545.105469 631.320312 545.507812 630.660156 545.902344 629.980469 C 546.394531 629.125 546.851562 628.273438 547.292969 627.425781 Z M 527.035156 627.425781 C 527.476562 628.28125 527.9375 629.136719 528.433594 629.996094 C 528.820312 630.667969 529.21875 631.324219 529.621094 631.964844 C 528.207031 631.769531 526.867188 631.523438 525.605469 631.226562 C 526.007812 630 526.488281 628.726562 527.035156 627.425781 Z M 525 633.269531 C 526.902344 633.71875 528.964844 634.066406 531.148438 634.289062 C 532.609375 636.402344 534.128906 638.296875 535.660156 639.957031 C 534.976562 640.621094 534.296875 641.25 533.632812 641.789062 C 531.925781 643.175781 530.304688 644.121094 528.957031 644.558594 C 527.605469 644.996094 526.597656 644.9375 525.847656 644.503906 C 525.097656 644.070312 524.546875 643.230469 524.25 641.839844 C 523.953125 640.453125 523.960938 638.582031 524.3125 636.40625 C 524.46875 635.421875 524.707031 634.363281 525 633.269531 Z M 549.332031 633.277344 C 549.628906 634.378906 549.867188 635.441406 550.027344 636.429688 C 550.375 638.605469 550.382812 640.484375 550.085938 641.875 C 549.789062 643.265625 549.234375 644.113281 548.476562 644.550781 C 547.71875 644.988281 546.703125 645.046875 545.351562 644.609375 C 543.996094 644.171875 542.375 643.222656 540.667969 641.832031 C 540 641.289062 539.316406 640.660156 538.628906 639.988281 C 540.167969 638.324219 541.699219 636.417969 543.167969 634.292969 C 545.359375 634.070312 547.425781 633.726562 549.332031 633.277344 Z M 533.890625 634.507812 C 534.972656 634.566406 536.0625 634.605469 537.183594 634.605469 C 538.265625 634.605469 539.324219 634.566406 540.371094 634.511719 C 539.300781 635.953125 538.214844 637.261719 537.128906 638.441406 C 536.046875 637.261719 534.957031 635.949219 533.890625 634.507812 Z M 533.890625 634.507812 " fill-opacity="1" fill-rule="nonzero"/></g><g clip-path="url(#5abfc9ab00)"><g clip-path="url(#1ea41f1a0f)"><path fill="#ffffff" d="M 479.101562 530.023438 L 689.617188 530.023438 L 689.617188 614.101562 L 479.101562 614.101562 Z M 479.101562 530.023438 " fill-opacity="1" fill-rule="nonzero"/></g></g><g clip-path="url(#21ce9cf883)"><path fill="#007d53" d="M 699.359375 595.257812 C 684.664062 586.617188 665.992188 597.167969 665.832031 614.207031 C 665.671875 630.84375 683.277344 641.589844 697.941406 634.265625 L 681.933594 610.714844 L 681.933594 625.292969 C 681.933594 626.910156 678.839844 626.910156 678.839844 625.292969 L 678.839844 605.75 C 678.839844 604.46875 681.222656 604.363281 681.898438 605.476562 L 700.144531 633.011719 C 713.851562 624.183594 713.667969 603.667969 699.359375 595.257812 Z M 697.300781 622.847656 L 694.199219 618.109375 L 694.199219 605.144531 C 694.199219 603.9375 697.300781 603.9375 697.300781 605.144531 Z M 697.300781 622.847656 " fill-opacity="1" fill-rule="nonzero"/></g><g fill="#007d53" fill-opacity="1"><g transform="translate(597.223101, 581.062503)"><g><path d="M 7.796875 -0.125 C 7.796875 -0.0390625 7.753906 0 7.671875 0 L 0.1875 0 C 0.113281 0 0.078125 -0.0390625 0.078125 -0.125 L 0.078125 -0.46875 C 0.078125 -0.550781 0.140625 -0.59375 0.265625 -0.59375 C 1.597656 -0.644531 2.5 -1.351562 2.96875 -2.71875 L 8.953125 -20.03125 C 8.960938 -20.039062 8.96875 -20.0625 8.96875 -20.09375 L 8.796875 -20.578125 C 8.796875 -20.628906 8.816406 -20.65625 8.859375 -20.65625 L 11.796875 -20.65625 C 11.816406 -20.644531 11.84375 -20.632812 11.875 -20.625 C 11.90625 -20.613281 11.929688 -20.582031 11.953125 -20.53125 L 18.15625 -3.15625 C 18.289062 -2.882812 18.398438 -2.640625 18.484375 -2.421875 C 18.566406 -2.210938 18.660156 -2.019531 18.765625 -1.84375 C 18.992188 -1.445312 19.378906 -1.140625 19.921875 -0.921875 C 20.367188 -0.703125 20.78125 -0.59375 21.15625 -0.59375 C 21.226562 -0.59375 21.265625 -0.546875 21.265625 -0.453125 L 21.265625 -0.125 C 21.265625 -0.0390625 21.226562 0 21.15625 0 L 12.1875 0 C 12.113281 0 12.078125 -0.0390625 12.078125 -0.125 L 12.078125 -0.46875 C 12.078125 -0.550781 12.253906 -0.597656 12.609375 -0.609375 C 12.972656 -0.628906 13.269531 -0.648438 13.5 -0.671875 C 14.863281 -0.816406 15.546875 -1.273438 15.546875 -2.046875 C 15.546875 -2.109375 15.535156 -2.175781 15.515625 -2.25 L 13.296875 -8.5 C 13.285156 -8.519531 13.269531 -8.5625 13.25 -8.625 C 13.125 -8.957031 12.914062 -9.125 12.625 -9.125 L 7.421875 -9.125 C 7.128906 -9.125 6.898438 -8.960938 6.734375 -8.640625 C 6.703125 -8.578125 6.6875 -8.539062 6.6875 -8.53125 L 4.5 -2.09375 L 4.5 -1.96875 C 4.5 -1.707031 4.628906 -1.476562 4.890625 -1.28125 C 5.484375 -0.820312 6.285156 -0.59375 7.296875 -0.59375 L 7.671875 -0.59375 C 7.753906 -0.59375 7.796875 -0.550781 7.796875 -0.46875 Z M 12.125 -10.75 C 12.300781 -10.75 12.390625 -10.820312 12.390625 -10.96875 C 12.390625 -11.050781 12.367188 -11.140625 12.328125 -11.234375 L 10.15625 -17.234375 C 10.050781 -17.503906 9.976562 -17.640625 9.9375 -17.640625 C 9.882812 -17.640625 9.804688 -17.503906 9.703125 -17.234375 L 7.640625 -11.234375 C 7.609375 -11.140625 7.59375 -11.035156 7.59375 -10.921875 C 7.59375 -10.804688 7.664062 -10.75 7.8125 -10.75 Z M 12.125 -10.75 "/></g></g><g transform="translate(618.565874, 581.062503)"><g><path d="M 1.90625 -1.46875 C 1.90625 -1.988281 2.085938 -2.441406 2.453125 -2.828125 C 2.828125 -3.210938 3.28125 -3.40625 3.8125 -3.40625 C 4.320312 -3.40625 4.765625 -3.21875 5.140625 -2.84375 C 5.523438 -2.46875 5.71875 -2.007812 5.71875 -1.46875 C 5.71875 -0.9375 5.53125 -0.492188 5.15625 -0.140625 C 4.78125 0.210938 4.332031 0.390625 3.8125 0.390625 C 3.289062 0.390625 2.84375 0.210938 2.46875 -0.140625 C 2.09375 -0.503906 1.90625 -0.945312 1.90625 -1.46875 Z M 1.90625 -1.46875 "/></g></g><g transform="translate(626.183061, 581.062503)"><g><path d="M 0.65625 -20.578125 C 0.65625 -20.660156 0.695312 -20.703125 0.78125 -20.703125 L 1.09375 -20.703125 L 5.796875 -20.796875 C 6.367188 -20.816406 6.984375 -20.828125 7.640625 -20.828125 L 9.484375 -20.828125 C 11.179688 -20.828125 12.457031 -20.765625 13.3125 -20.640625 C 14.164062 -20.515625 15.003906 -20.363281 15.828125 -20.1875 C 16.648438 -20.019531 17.523438 -19.632812 18.453125 -19.03125 C 19.390625 -18.425781 20.203125 -17.691406 20.890625 -16.828125 C 22.335938 -14.992188 23.0625 -13.007812 23.0625 -10.875 C 23.0625 -8.75 22.503906 -6.84375 21.390625 -5.15625 C 19.785156 -2.707031 17.460938 -1.109375 14.421875 -0.359375 C 13.460938 -0.117188 12.472656 0 11.453125 0 L 0.78125 0 C 0.695312 0 0.65625 -0.0390625 0.65625 -0.125 L 0.65625 -0.53125 C 0.65625 -0.601562 0.695312 -0.640625 0.78125 -0.640625 L 1.09375 -0.640625 C 2.875 -0.640625 3.765625 -1.207031 3.765625 -2.34375 L 3.765625 -18.40625 C 3.765625 -18.945312 3.550781 -19.351562 3.125 -19.625 C 2.707031 -19.90625 2.238281 -20.046875 1.71875 -20.046875 L 0.78125 -20.046875 C 0.695312 -20.046875 0.65625 -20.085938 0.65625 -20.171875 Z M 6.984375 -20.140625 C 6.742188 -20.140625 6.625 -20.007812 6.625 -19.75 L 6.625 -1.828125 C 6.625 -1.109375 7.300781 -0.734375 8.65625 -0.703125 C 9.0625 -0.691406 9.484375 -0.6875 9.921875 -0.6875 C 13.035156 -0.6875 15.484375 -1.5625 17.265625 -3.3125 C 19.046875 -5.0625 19.9375 -7.390625 19.9375 -10.296875 C 19.9375 -13.203125 19.113281 -15.566406 17.46875 -17.390625 C 15.820312 -19.222656 13.65625 -20.140625 10.96875 -20.140625 Z M 6.984375 -20.140625 "/></g></g></g></svg>